<svg xmlns="http://www.w3.org/2000/svg" xmlns:xlink="http://www.w3.org/1999/xlink" width="1080" zoomAndPan="magnify" viewBox="0 0 810 809.999993" height="1080" preserveAspectRatio="xMidYMid meet" version="1.0"><defs><clipPath id="bb8c557147"><path d="M 197.59375 58 L 407.527344 58 L 407.527344 322.5 L 197.59375 322.5 Z M 197.59375 58 " clip-rule="nonzero"/></clipPath><clipPath id="0c6e82116b"><path d="M 349.027344 58.121094 L 387.808594 96.90625 L 304.621094 180.65625 C 332.601562 231.496094 350.554688 257.664062 358.488281 259.164062 C 366.417969 260.660156 375.882812 256.789062 386.875 247.546875 L 407.296875 297.945312 C 393.679688 312.558594 380.71875 320.523438 368.417969 321.835938 C 356.113281 323.148438 343.78125 321.554688 331.414062 317.058594 C 319.050781 312.558594 296.125 278.960938 262.652344 216.253906 L 251.222656 228.621094 L 251.222656 318.929688 L 197.824219 318.929688 L 197.824219 63.929688 L 251.035156 63.929688 L 251.222656 155.925781 Z M 349.027344 58.121094 " clip-rule="nonzero"/></clipPath><clipPath id="47d9b799e7"><path d="M 0.761719 0.078125 L 210.519531 0.078125 L 210.519531 264.5 L 0.761719 264.5 Z M 0.761719 0.078125 " clip-rule="nonzero"/></clipPath><clipPath id="95477465f9"><path d="M 152.027344 0.121094 L 190.808594 38.90625 L 107.621094 122.65625 C 135.601562 173.496094 153.554688 199.664062 161.488281 201.164062 C 169.417969 202.660156 178.882812 198.789062 189.875 189.546875 L 210.296875 239.945312 C 196.679688 254.558594 183.71875 262.523438 171.417969 263.835938 C 159.113281 265.148438 146.78125 263.554688 134.414062 259.058594 C 122.050781 254.558594 99.125 220.960938 65.652344 158.253906 L 54.222656 170.621094 L 54.222656 260.929688 L 0.824219 260.929688 L 0.824219 5.929688 L 54.035156 5.929688 L 54.222656 97.925781 Z M 152.027344 0.121094 " clip-rule="nonzero"/></clipPath><clipPath id="5bb1aec00d"><rect x="0" width="211" y="0" height="265"/></clipPath><clipPath id="4182931a6c"><path d="M 411.027344 63.832031 L 519.449219 63.832031 L 519.449219 319.429688 L 411.027344 319.429688 Z M 411.027344 63.832031 " clip-rule="nonzero"/></clipPath><clipPath id="949b82304f"><path d="M 417.257812 63.832031 L 519.449219 63.832031 L 511.949219 117.832031 L 495.449219 117.832031 L 495.449219 266.902344 L 516.453125 266.902344 L 513.449219 319.214844 L 411.257812 319.214844 L 416.320312 266.527344 L 438.257812 266.714844 L 438.632812 131.144531 L 462.261719 117.832031 L 411.820312 117.832031 Z M 417.257812 63.832031 " clip-rule="nonzero"/></clipPath><clipPath id="9dc14185fb"><path d="M 0.121094 0.832031 L 108.449219 0.832031 L 108.449219 256.429688 L 0.121094 256.429688 Z M 0.121094 0.832031 " clip-rule="nonzero"/></clipPath><clipPath id="a38d03cc7f"><path d="M 6.257812 0.832031 L 108.449219 0.832031 L 100.949219 54.832031 L 84.449219 54.832031 L 84.449219 203.902344 L 105.453125 203.902344 L 102.449219 256.214844 L 0.257812 256.214844 L 5.320312 203.527344 L 27.257812 203.714844 L 27.632812 68.144531 L 51.261719 54.832031 L 0.820312 54.832031 Z M 6.257812 0.832031 " clip-rule="nonzero"/></clipPath><clipPath id="2a73ebb478"><rect x="0" width="109" y="0" height="257"/></clipPath><clipPath id="937c3a9e23"><path d="M 195.84375 333.167969 L 353.957031 333.167969 L 353.957031 531.671875 L 195.84375 531.671875 Z M 195.84375 333.167969 " clip-rule="nonzero"/></clipPath><clipPath id="471a0b2246"><path d="M 210.535156 333.398438 L 344.335938 333.398438 L 339.535156 376.300781 C 312.195312 391.523438 289.84375 410.042969 272.488281 431.859375 C 255.132812 453.671875 245.632812 472.53125 243.984375 488.429688 L 303.320312 488.285156 C 310.980469 485.667969 317.039062 479.902344 321.5 470.980469 L 353.785156 492.359375 C 345.738281 509.910156 337.351562 521.058594 328.628906 525.808594 C 319.902344 530.5625 308.894531 532.304688 295.613281 531.042969 L 224.351562 531.042969 C 216.789062 531.722656 210.703125 529.832031 206.097656 525.371094 C 201.492188 520.914062 198.703125 514.589844 197.734375 506.394531 C 196.765625 498.203125 197.058594 489.59375 198.609375 480.578125 C 200.160156 471.5625 208.109375 456.316406 222.460938 434.839844 C 236.808594 413.367188 254.40625 393.707031 275.253906 375.867188 L 195.84375 375.867188 Z M 210.535156 333.398438 " clip-rule="nonzero"/></clipPath><clipPath id="140b6e66e4"><path d="M 0.84375 0.359375 L 158.957031 0.359375 L 158.957031 198.601562 L 0.84375 198.601562 Z M 0.84375 0.359375 " clip-rule="nonzero"/></clipPath><clipPath id="d6497fbbdd"><path d="M 15.535156 0.398438 L 149.335938 0.398438 L 144.535156 43.300781 C 117.195312 58.523438 94.84375 77.042969 77.488281 98.859375 C 60.132812 120.671875 50.632812 139.53125 48.984375 155.429688 L 108.320312 155.285156 C 115.980469 152.667969 122.039062 146.902344 126.5 137.980469 L 158.785156 159.359375 C 150.738281 176.910156 142.351562 188.058594 133.628906 192.808594 C 124.902344 197.5625 113.894531 199.304688 100.613281 198.042969 L 29.351562 198.042969 C 21.789062 198.722656 15.703125 196.832031 11.097656 192.371094 C 6.492188 187.914062 3.703125 181.589844 2.734375 173.394531 C 1.765625 165.203125 2.058594 156.59375 3.609375 147.578125 C 5.160156 138.5625 13.109375 123.316406 27.460938 101.839844 C 41.808594 80.367188 59.40625 60.707031 80.253906 42.867188 L 0.84375 42.867188 Z M 15.535156 0.398438 " clip-rule="nonzero"/></clipPath><clipPath id="90e1b2f680"><rect x="0" width="159" y="0" height="199"/></clipPath><clipPath id="d3c9de1185"><path d="M 351.015625 330.960938 L 517.492188 330.960938 L 517.492188 534.84375 L 351.015625 534.84375 Z M 351.015625 330.960938 " clip-rule="nonzero"/></clipPath><clipPath id="7743a52fcd"><path d="M 398.519531 330.960938 C 392.996094 381.960938 392.242188 416.140625 396.265625 433.496094 C 400.289062 450.855469 406.714844 464.574219 415.539062 474.65625 C 424.359375 484.742188 444.335938 487.164062 475.460938 481.929688 L 475.316406 332.996094 L 517.492188 335.46875 L 517.492188 526 L 475.316406 530.21875 L 475.316406 506.21875 L 467.753906 532.542969 L 458.589844 534.582031 C 431.339844 535.0625 410.761719 531.234375 396.847656 523.089844 C 382.933594 514.945312 371.46875 498.414062 362.449219 473.492188 C 353.433594 448.574219 349.746094 412.605469 351.394531 365.574219 L 353.871094 338.667969 Z M 398.519531 330.960938 " clip-rule="nonzero"/></clipPath><clipPath id="e468a45a0f"><path d="M 0.015625 0.960938 L 166.492188 0.960938 L 166.492188 204.84375 L 0.015625 204.84375 Z M 0.015625 0.960938 " clip-rule="nonzero"/></clipPath><clipPath id="f69662a670"><path d="M 47.519531 0.960938 C 41.996094 51.960938 41.242188 86.140625 45.265625 103.496094 C 49.289062 120.855469 55.714844 134.574219 64.539062 144.65625 C 73.359375 154.742188 93.335938 157.164062 124.460938 151.929688 L 124.316406 2.996094 L 166.492188 5.46875 L 166.492188 196 L 124.316406 200.21875 L 124.316406 176.21875 L 116.753906 202.542969 L 107.589844 204.582031 C 80.339844 205.0625 59.761719 201.234375 45.847656 193.089844 C 31.933594 184.945312 20.46875 168.414062 11.449219 143.492188 C 2.433594 118.574219 -1.253906 82.605469 0.394531 35.574219 L 2.871094 8.667969 Z M 47.519531 0.960938 " clip-rule="nonzero"/></clipPath><clipPath id="09cc5fb4bc"><rect x="0" width="167" y="0" height="205"/></clipPath><clipPath id="1520f8cf8e"><path d="M 195.121094 552.359375 L 344.152344 552.359375 L 344.152344 737.378906 L 195.121094 737.378906 Z M 195.121094 552.359375 " clip-rule="nonzero"/></clipPath><clipPath id="4d74d72898"><path d="M 195.394531 552.359375 L 234.734375 552.359375 L 234.597656 581.660156 L 239.210938 570.265625 C 256.484375 574.878906 269.257812 580.054688 277.53125 585.796875 C 285.808594 591.542969 294.375 600.921875 303.238281 613.945312 L 305.136719 619.371094 L 305.003906 552.628906 L 344.070312 552.628906 L 344.070312 704.832031 C 344.703125 711.796875 341.695312 719.191406 335.046875 727.011719 C 328.402344 734.835938 314.769531 738.203125 294.148438 737.117188 L 294.148438 698.726562 C 303.191406 698.003906 306.992188 692.171875 305.542969 681.230469 C 305.632812 675.082031 304.300781 668.410156 301.542969 661.21875 C 298.785156 654.03125 290.191406 644.445312 275.769531 632.460938 C 261.34375 620.480469 247.621094 612.679688 234.597656 609.0625 L 234.597656 737.117188 L 195.121094 737.117188 Z M 195.394531 552.359375 " clip-rule="nonzero"/></clipPath><clipPath id="0550ebfd79"><path d="M 0.121094 0.359375 L 149.152344 0.359375 L 149.152344 185.378906 L 0.121094 185.378906 Z M 0.121094 0.359375 " clip-rule="nonzero"/></clipPath><clipPath id="9b2d8bd279"><path d="M 0.394531 0.359375 L 39.734375 0.359375 L 39.597656 29.660156 L 44.210938 18.265625 C 61.484375 22.878906 74.257812 28.054688 82.53125 33.796875 C 90.808594 39.542969 99.375 48.921875 108.238281 61.945312 L 110.136719 67.371094 L 110.003906 0.628906 L 149.070312 0.628906 L 149.070312 152.832031 C 149.703125 159.796875 146.695312 167.191406 140.046875 175.011719 C 133.402344 182.835938 119.769531 186.203125 99.148438 185.117188 L 99.148438 146.726562 C 108.191406 146.003906 111.992188 140.171875 110.542969 129.230469 C 110.632812 123.082031 109.300781 116.410156 106.542969 109.21875 C 103.785156 102.03125 95.191406 92.445312 80.769531 80.460938 C 66.34375 68.480469 52.621094 60.679688 39.597656 57.0625 L 39.597656 185.117188 L 0.121094 185.117188 Z M 0.394531 0.359375 " clip-rule="nonzero"/></clipPath><clipPath id="85c11a46c6"><rect x="0" width="150" y="0" height="186"/></clipPath><clipPath id="6a1c6ef4e5"><path d="M 345.03125 538.371094 L 519 538.371094 L 519 741.621094 L 345.03125 741.621094 Z M 345.03125 538.371094 " clip-rule="nonzero"/></clipPath><clipPath id="baddc14580"><path d="M 538.804688 73.300781 L 609.691406 73.300781 L 609.691406 121.695312 L 538.804688 121.695312 Z M 538.804688 73.300781 " clip-rule="nonzero"/></clipPath><clipPath id="df55c6d12e"><path d="M 609.652344 110.714844 C 609.578125 117.5625 609.085938 121.054688 608.175781 121.195312 C 607.335938 121.398438 605.75 121.554688 603.4375 121.65625 C 601.117188 121.757812 598.769531 121.65625 596.382812 121.34375 C 593.996094 121.039062 592.695312 120.472656 592.484375 119.652344 C 592.484375 116.910156 592.769531 112.339844 593.332031 105.9375 C 593.894531 99.53125 594.132812 94.378906 594.066406 90.476562 C 593.644531 90.542969 592.558594 90.664062 590.800781 90.835938 C 589.046875 91.003906 587.585938 91.246094 586.429688 91.554688 C 585.273438 91.863281 584.273438 92.289062 583.425781 92.839844 C 582.304688 93.867188 581.5 96.589844 581.007812 101.007812 C 580.515625 105.421875 580.027344 107.835938 579.535156 108.25 C 578.902344 108.386719 577.8125 108.523438 576.269531 108.660156 C 574.722656 108.796875 573.039062 108.898438 571.214844 108.964844 C 569.386719 109.035156 567.734375 108.933594 566.261719 108.660156 C 564.789062 108.386719 563.949219 107.941406 563.738281 107.324219 C 563.105469 102.664062 564.191406 97.050781 567 90.476562 C 549.378906 90.746094 540.359375 90.371094 539.9375 89.34375 C 539.652344 88.523438 539.390625 86.996094 539.144531 84.773438 C 538.902344 82.546875 538.953125 80.269531 539.308594 77.941406 C 539.65625 75.613281 540.464844 74.308594 541.730469 74.039062 C 547.132812 74.039062 555.765625 74.328125 567.632812 74.910156 C 579.5 75.492188 588.449219 75.851562 594.492188 75.992188 C 594.492188 74.964844 595.316406 74.226562 596.964844 73.78125 C 598.613281 73.335938 600.386719 73.203125 602.28125 73.375 C 604.175781 73.542969 605.546875 73.871094 606.386719 74.347656 C 606.808594 74.621094 607.199219 75.515625 607.546875 77.019531 C 608.390625 77.5 608.933594 78.679688 609.179688 80.5625 C 609.421875 82.445312 609.296875 84.140625 608.808594 85.648438 C 609.296875 92.363281 609.582031 100.714844 609.652344 110.714844 Z M 609.652344 110.714844 " clip-rule="nonzero"/></clipPath><clipPath id="29ee6ff46f"><path d="M 0.804688 0.300781 L 71.691406 0.300781 L 71.691406 48.695312 L 0.804688 48.695312 Z M 0.804688 0.300781 " clip-rule="nonzero"/></clipPath><clipPath id="d71819a9f1"><path d="M 71.652344 37.714844 C 71.578125 44.5625 71.085938 48.054688 70.175781 48.195312 C 69.335938 48.398438 67.75 48.554688 65.4375 48.65625 C 63.117188 48.757812 60.769531 48.65625 58.382812 48.34375 C 55.996094 48.039062 54.695312 47.472656 54.484375 46.652344 C 54.484375 43.910156 54.769531 39.339844 55.332031 32.9375 C 55.894531 26.53125 56.132812 21.378906 56.066406 17.476562 C 55.644531 17.542969 54.558594 17.664062 52.800781 17.835938 C 51.046875 18.003906 49.585938 18.246094 48.429688 18.554688 C 47.273438 18.863281 46.273438 19.289062 45.425781 19.839844 C 44.304688 20.867188 43.5 23.589844 43.007812 28.007812 C 42.515625 32.421875 42.027344 34.835938 41.535156 35.25 C 40.902344 35.386719 39.8125 35.523438 38.269531 35.660156 C 36.722656 35.796875 35.039062 35.898438 33.214844 35.964844 C 31.386719 36.035156 29.734375 35.933594 28.261719 35.660156 C 26.789062 35.386719 25.949219 34.941406 25.738281 34.324219 C 25.105469 29.664062 26.191406 24.050781 29 17.476562 C 11.378906 17.746094 2.359375 17.371094 1.9375 16.34375 C 1.652344 15.523438 1.390625 13.996094 1.144531 11.773438 C 0.902344 9.546875 0.953125 7.269531 1.308594 4.941406 C 1.65625 2.613281 2.464844 1.308594 3.730469 1.039062 C 9.132812 1.039062 17.765625 1.328125 29.632812 1.910156 C 41.5 2.492188 50.449219 2.851562 56.492188 2.992188 C 56.492188 1.964844 57.316406 1.226562 58.964844 0.78125 C 60.613281 0.335938 62.386719 0.203125 64.28125 0.375 C 66.175781 0.542969 67.546875 0.871094 68.386719 1.347656 C 68.808594 1.621094 69.199219 2.515625 69.546875 4.019531 C 70.390625 4.5 70.933594 5.679688 71.179688 7.5625 C 71.421875 9.445312 71.296875 11.140625 70.808594 12.648438 C 71.296875 19.363281 71.582031 27.714844 71.652344 37.714844 Z M 71.652344 37.714844 " clip-rule="nonzero"/></clipPath><clipPath id="9c9e47bd76"><rect x="0" width="72" y="0" height="49"/></clipPath><clipPath id="4f19542c47"><path d="M 536 132.574219 L 610.335938 132.574219 L 610.335938 183 L 536 183 Z M 536 132.574219 " clip-rule="nonzero"/></clipPath><clipPath id="531c5ce881"><path d="M 593.21875 162.375 C 593.144531 161.28125 593.21875 157.101562 593.429688 149.84375 C 592.019531 149.910156 590.023438 150.011719 587.421875 150.152344 C 584.824219 150.289062 583.070312 150.390625 582.160156 150.460938 C 582.085938 151.347656 582.175781 154.003906 582.425781 158.421875 C 582.667969 162.839844 582.71875 166.792969 582.582031 170.289062 C 582.4375 173.78125 581.949219 176.246094 581.105469 177.683594 C 577.945312 177.957031 575.378906 178.097656 573.417969 178.097656 C 571.449219 178.097656 569.855469 177.976562 568.625 177.738281 C 567.394531 177.496094 566.535156 177.03125 566.046875 176.351562 C 565.550781 175.664062 565.257812 174.910156 565.148438 174.089844 C 565.046875 173.265625 565.109375 172.117188 565.359375 170.648438 C 565.605469 169.171875 565.847656 167.667969 566.097656 166.125 C 566.34375 164.585938 566.550781 162.617188 566.730469 160.21875 C 566.90625 157.820312 566.921875 155.425781 566.78125 153.027344 C 564.609375 154.191406 562.65625 156.058594 560.9375 158.628906 C 559.214844 161.195312 557.898438 163.761719 556.988281 166.332031 C 556.074219 168.898438 554.988281 171.636719 553.726562 174.546875 C 552.457031 177.460938 551.265625 179.667969 550.140625 181.175781 C 549.015625 181.3125 546.945312 180.882812 543.929688 179.890625 C 540.910156 178.898438 538.835938 177.851562 537.710938 176.757812 C 537.011719 176.074219 536.554688 175.386719 536.347656 174.703125 C 536.136719 174.019531 536.097656 173.4375 536.238281 172.957031 C 536.382812 172.476562 536.660156 171.726562 537.082031 170.695312 C 537.503906 169.667969 537.820312 168.8125 538.027344 168.128906 C 539.082031 165.320312 540.222656 162.632812 541.453125 160.0625 C 542.679688 157.496094 544.191406 154.890625 545.980469 152.253906 C 547.773438 149.617188 549.667969 147.289062 551.671875 145.269531 C 553.675781 143.25 556.023438 141.46875 558.726562 139.925781 C 561.429688 138.386719 564.289062 137.375 567.308594 136.898438 C 567.382812 135.457031 567.484375 134.636719 567.628906 134.429688 C 568.117188 133.816406 569.382812 133.335938 571.417969 132.992188 C 573.453125 132.648438 575.421875 132.699219 577.3125 133.148438 C 579.210938 133.589844 580.226562 134.5 580.375 135.871094 C 584.441406 135.800781 589.007812 135.832031 594.0625 135.972656 C 594.480469 135.355469 595.640625 134.875 597.539062 134.535156 C 599.433594 134.191406 601.3125 134.175781 603.175781 134.484375 C 605.03125 134.792969 606.136719 135.496094 606.488281 136.589844 C 608.035156 136.523438 609.105469 137.222656 609.699219 138.699219 C 610.296875 140.171875 610.421875 141.796875 610.070312 143.578125 C 609.722656 145.359375 609.125 146.726562 608.28125 147.6875 C 608.699219 154.535156 608.949219 162.546875 609.011719 171.726562 C 608.949219 178.507812 608.449219 182 607.539062 182.207031 C 604.3125 182.617188 601.660156 182.839844 599.589844 182.875 C 597.519531 182.90625 595.90625 182.703125 594.746094 182.257812 C 593.582031 181.808594 592.78125 181.28125 592.320312 180.664062 C 591.863281 180.046875 591.636719 179.085938 591.636719 177.789062 C 591.636719 176.484375 591.757812 175.199219 592.007812 173.933594 C 592.25 172.664062 592.515625 170.917969 592.792969 168.695312 C 593.074219 166.46875 593.21875 164.363281 593.21875 162.375 Z M 593.21875 162.375 " clip-rule="nonzero"/></clipPath><clipPath id="aaaaa739a0"><path d="M 0 0.71875 L 74.335938 0.71875 L 74.335938 50.878906 L 0 50.878906 Z M 0 0.71875 " clip-rule="nonzero"/></clipPath><clipPath id="40db51bfed"><path d="M 57.21875 30.375 C 57.144531 29.28125 57.21875 25.101562 57.429688 17.84375 C 56.019531 17.910156 54.023438 18.011719 51.421875 18.152344 C 48.824219 18.289062 47.070312 18.390625 46.160156 18.460938 C 46.085938 19.347656 46.175781 22.003906 46.425781 26.421875 C 46.667969 30.839844 46.71875 34.792969 46.582031 38.289062 C 46.4375 41.78125 45.949219 44.246094 45.105469 45.683594 C 41.945312 45.957031 39.378906 46.097656 37.417969 46.097656 C 35.449219 46.097656 33.855469 45.976562 32.625 45.738281 C 31.394531 45.496094 30.535156 45.03125 30.046875 44.351562 C 29.550781 43.664062 29.257812 42.910156 29.148438 42.089844 C 29.046875 41.265625 29.109375 40.117188 29.359375 38.648438 C 29.605469 37.171875 29.847656 35.667969 30.097656 34.125 C 30.34375 32.585938 30.550781 30.617188 30.730469 28.21875 C 30.90625 25.820312 30.921875 23.425781 30.78125 21.027344 C 28.609375 22.191406 26.65625 24.058594 24.9375 26.628906 C 23.214844 29.195312 21.898438 31.761719 20.988281 34.332031 C 20.074219 36.898438 18.988281 39.636719 17.726562 42.546875 C 16.457031 45.460938 15.265625 47.667969 14.140625 49.175781 C 13.015625 49.3125 10.945312 48.882812 7.929688 47.890625 C 4.910156 46.898438 2.835938 45.851562 1.710938 44.757812 C 1.011719 44.074219 0.554688 43.386719 0.347656 42.703125 C 0.136719 42.019531 0.0976562 41.4375 0.238281 40.957031 C 0.382812 40.476562 0.660156 39.726562 1.082031 38.695312 C 1.503906 37.667969 1.820312 36.8125 2.027344 36.128906 C 3.082031 33.320312 4.222656 30.632812 5.453125 28.0625 C 6.679688 25.496094 8.191406 22.890625 9.980469 20.253906 C 11.773438 17.617188 13.667969 15.289062 15.671875 13.269531 C 17.675781 11.25 20.023438 9.46875 22.726562 7.925781 C 25.429688 6.386719 28.289062 5.375 31.308594 4.898438 C 31.382812 3.457031 31.484375 2.636719 31.628906 2.429688 C 32.117188 1.816406 33.382812 1.335938 35.417969 0.992188 C 37.453125 0.648438 39.421875 0.699219 41.3125 1.148438 C 43.210938 1.589844 44.226562 2.5 44.375 3.871094 C 48.441406 3.800781 53.007812 3.832031 58.0625 3.972656 C 58.480469 3.355469 59.640625 2.875 61.539062 2.535156 C 63.433594 2.191406 65.3125 2.175781 67.175781 2.484375 C 69.03125 2.792969 70.136719 3.496094 70.488281 4.589844 C 72.035156 4.523438 73.105469 5.222656 73.699219 6.699219 C 74.296875 8.171875 74.421875 9.796875 74.070312 11.578125 C 73.722656 13.359375 73.125 14.726562 72.28125 15.6875 C 72.699219 22.535156 72.949219 30.546875 73.011719 39.726562 C 72.949219 46.507812 72.449219 50 71.539062 50.207031 C 68.3125 50.617188 65.660156 50.839844 63.589844 50.875 C 61.519531 50.90625 59.90625 50.703125 58.746094 50.257812 C 57.582031 49.808594 56.78125 49.28125 56.320312 48.664062 C 55.863281 48.046875 55.636719 47.085938 55.636719 45.789062 C 55.636719 44.484375 55.757812 43.199219 56.007812 41.933594 C 56.25 40.664062 56.515625 38.917969 56.792969 36.695312 C 57.074219 34.46875 57.21875 32.363281 57.21875 30.375 Z M 57.21875 30.375 " clip-rule="nonzero"/></clipPath><clipPath id="07109beb87"><rect x="0" width="75" y="0" height="51"/></clipPath><clipPath id="5fd4b3e256"><path d="M 536.46875 195.601562 L 610 195.601562 L 610 250.972656 L 536.46875 250.972656 Z M 536.46875 195.601562 " clip-rule="nonzero"/></clipPath><clipPath id="877e836d1b"><path d="M 573 198.542969 C 573.84375 197.71875 574.773438 197.085938 575.792969 196.640625 C 576.8125 196.195312 577.863281 195.9375 578.953125 195.867188 C 580.046875 195.796875 581.117188 195.796875 582.171875 195.867188 C 583.226562 195.9375 584.367188 196.109375 585.597656 196.382812 C 586.828125 196.65625 587.933594 196.929688 588.917969 197.207031 C 589.902344 197.480469 591.007812 197.804688 592.238281 198.183594 C 593.46875 198.558594 594.46875 198.816406 595.246094 198.953125 C 595.246094 197.855469 596.046875 197.066406 597.667969 196.589844 C 599.285156 196.109375 601.058594 195.972656 602.988281 196.179688 C 604.925781 196.386719 606.3125 196.757812 607.152344 197.308594 C 607.855469 197.789062 608.453125 200.019531 608.949219 203.992188 C 610 204.953125 610.175781 206.632812 609.476562 209.03125 C 609.753906 213.28125 609.894531 217.394531 609.890625 221.371094 L 609.890625 226.566406 C 609.890625 229.753906 609.878906 232.664062 609.839844 235.308594 C 609.804688 237.945312 609.628906 240.601562 609.316406 243.277344 C 608.996094 245.949219 608.527344 247.558594 607.890625 248.109375 C 607.050781 248.316406 605.464844 248.433594 603.148438 248.46875 C 600.824219 248.503906 598.488281 248.3125 596.136719 247.902344 C 593.785156 247.492188 592.496094 246.839844 592.289062 245.945312 C 592.078125 244.917969 592.320312 241.972656 593.027344 237.105469 C 593.378906 234.773438 593.660156 232.613281 593.871094 230.625 C 594.082031 228.636719 594.203125 227.011719 594.238281 225.742188 C 594.273438 224.472656 594.328125 222.554688 594.398438 219.980469 C 594.46875 217.410156 594.570312 215.132812 594.714844 213.144531 C 590.5 212.253906 586.773438 211.535156 583.539062 210.984375 C 582.628906 213.453125 582.414062 220.222656 582.90625 231.292969 C 583.398438 242.363281 583.1875 248.414062 582.277344 249.445312 C 581.429688 249.785156 579.902344 250.128906 577.6875 250.472656 C 575.476562 250.816406 573.1875 250.847656 570.835938 250.574219 C 568.480469 250.300781 567.058594 249.546875 566.566406 248.3125 C 561.226562 247.832031 556.429688 245.996094 552.179688 242.808594 C 547.925781 239.621094 544.589844 235.832031 542.164062 231.445312 C 539.738281 227.058594 538.066406 222.292969 537.160156 217.152344 C 536.035156 209.40625 536.28125 204.332031 537.894531 201.933594 C 539.648438 201.453125 542.429688 201.417969 546.226562 201.832031 C 549.527344 202.242188 551.652344 202.808594 552.601562 203.527344 C 553.550781 204.25 553.847656 205.804688 553.496094 208.207031 C 553.214844 211.632812 553.429688 215.007812 554.128906 218.335938 C 554.832031 221.660156 556.238281 224.777344 558.34375 227.691406 C 560.457031 230.609375 563.121094 232.683594 566.359375 233.917969 C 566.496094 231.171875 566.601562 228.160156 566.671875 224.867188 C 566.742188 221.578125 566.796875 218.472656 566.832031 215.558594 C 566.871094 212.644531 567.394531 209.648438 568.410156 206.5625 C 569.433594 203.480469 570.960938 200.804688 573 198.542969 Z M 573 198.542969 " clip-rule="nonzero"/></clipPath><clipPath id="e9fe8a8626"><path d="M 0.46875 0.601562 L 74 0.601562 L 74 55.800781 L 0.46875 55.800781 Z M 0.46875 0.601562 " clip-rule="nonzero"/></clipPath><clipPath id="a34c889e79"><path d="M 37 3.542969 C 37.84375 2.71875 38.773438 2.085938 39.792969 1.640625 C 40.8125 1.195312 41.863281 0.9375 42.953125 0.867188 C 44.046875 0.796875 45.117188 0.796875 46.171875 0.867188 C 47.226562 0.9375 48.367188 1.109375 49.597656 1.382812 C 50.828125 1.65625 51.933594 1.929688 52.917969 2.207031 C 53.902344 2.480469 55.007812 2.804688 56.238281 3.183594 C 57.46875 3.558594 58.46875 3.816406 59.246094 3.953125 C 59.246094 2.855469 60.046875 2.066406 61.667969 1.589844 C 63.285156 1.109375 65.058594 0.972656 66.988281 1.179688 C 68.925781 1.386719 70.3125 1.757812 71.152344 2.308594 C 71.855469 2.789062 72.453125 5.019531 72.949219 8.992188 C 74 9.953125 74.175781 11.632812 73.476562 14.03125 C 73.753906 18.28125 73.894531 22.394531 73.890625 26.371094 L 73.890625 31.566406 C 73.890625 34.753906 73.878906 37.664062 73.839844 40.308594 C 73.804688 42.945312 73.628906 45.601562 73.316406 48.277344 C 72.996094 50.949219 72.527344 52.558594 71.890625 53.109375 C 71.050781 53.316406 69.464844 53.433594 67.148438 53.46875 C 64.824219 53.503906 62.488281 53.3125 60.136719 52.902344 C 57.785156 52.492188 56.496094 51.839844 56.289062 50.945312 C 56.078125 49.917969 56.320312 46.972656 57.027344 42.105469 C 57.378906 39.773438 57.660156 37.613281 57.871094 35.625 C 58.082031 33.636719 58.203125 32.011719 58.238281 30.742188 C 58.273438 29.472656 58.328125 27.554688 58.398438 24.980469 C 58.46875 22.410156 58.570312 20.132812 58.714844 18.144531 C 54.5 17.253906 50.773438 16.535156 47.539062 15.984375 C 46.628906 18.453125 46.414062 25.222656 46.90625 36.292969 C 47.398438 47.363281 47.1875 53.414062 46.277344 54.445312 C 45.429688 54.785156 43.902344 55.128906 41.6875 55.472656 C 39.476562 55.816406 37.1875 55.847656 34.835938 55.574219 C 32.480469 55.300781 31.058594 54.546875 30.566406 53.3125 C 25.226562 52.832031 20.429688 50.996094 16.179688 47.808594 C 11.925781 44.621094 8.589844 40.832031 6.164062 36.445312 C 3.738281 32.058594 2.066406 27.292969 1.160156 22.152344 C 0.0351562 14.40625 0.28125 9.332031 1.894531 6.933594 C 3.648438 6.453125 6.429688 6.417969 10.226562 6.832031 C 13.527344 7.242188 15.652344 7.808594 16.601562 8.527344 C 17.550781 9.25 17.847656 10.804688 17.496094 13.207031 C 17.214844 16.632812 17.429688 20.007812 18.128906 23.335938 C 18.832031 26.660156 20.238281 29.777344 22.34375 32.691406 C 24.457031 35.609375 27.121094 37.683594 30.359375 38.917969 C 30.496094 36.171875 30.601562 33.160156 30.671875 29.867188 C 30.742188 26.578125 30.796875 23.472656 30.832031 20.558594 C 30.871094 17.644531 31.394531 14.648438 32.410156 11.5625 C 33.433594 8.480469 34.960938 5.804688 37 3.542969 Z M 37 3.542969 " clip-rule="nonzero"/></clipPath><clipPath id="f61f7459e3"><rect x="0" width="74" y="0" height="56"/></clipPath><clipPath id="40359b59cb"><path d="M 537.4375 261.769531 L 610.738281 261.769531 L 610.738281 311.347656 L 537.4375 311.347656 Z M 537.4375 261.769531 " clip-rule="nonzero"/></clipPath><clipPath id="3154a47f07"><path d="M 575.625 294.960938 C 575.203125 294.960938 571.816406 295.097656 565.460938 295.371094 C 559.109375 295.644531 553.351562 295.746094 548.1875 295.679688 C 543.027344 295.609375 539.882812 295.230469 538.761719 294.550781 C 538.40625 293.726562 538.09375 292.199219 537.816406 289.976562 C 537.535156 287.75 537.570312 285.472656 537.921875 283.144531 C 538.273438 280.8125 539.117188 279.511719 540.453125 279.238281 C 545.085938 279.238281 553.246094 279.394531 564.941406 279.703125 C 576.628906 280.011719 586.160156 280.097656 593.535156 279.960938 C 593.671875 278.042969 593.796875 276.484375 593.902344 275.285156 C 594.003906 274.085938 594.148438 272.390625 594.320312 270.199219 C 594.496094 268.007812 594.675781 266.296875 594.851562 265.0625 C 595.027344 263.832031 595.148438 263.175781 595.21875 263.113281 C 595.917969 262.152344 597.777344 261.707031 600.800781 261.777344 C 603.816406 261.84375 605.890625 262.289062 607.015625 263.113281 C 608.136719 264.277344 608.699219 270.0625 608.699219 280.476562 C 609.964844 281.363281 610.597656 283.265625 610.597656 286.179688 C 610.597656 289.089844 609.925781 291.023438 608.59375 291.984375 C 608.59375 292.257812 608.574219 292.992188 608.539062 294.191406 C 608.503906 295.390625 608.472656 296.453125 608.4375 297.378906 C 608.398438 298.300781 608.363281 299.449219 608.328125 300.816406 C 608.292969 302.1875 608.222656 303.371094 608.121094 304.363281 C 608.011719 305.355469 607.886719 306.351562 607.75 307.34375 C 607.609375 308.335938 607.449219 309.140625 607.273438 309.757812 C 607.101562 310.375 606.875 310.75 606.59375 310.886719 C 606.027344 310.886719 605.222656 310.921875 604.167969 310.992188 C 601.921875 311.058594 600.324219 311.109375 599.378906 311.144531 C 598.429688 311.175781 597.289062 311.125 595.953125 310.988281 C 594.617188 310.851562 593.757812 310.746094 593.375 310.679688 C 592.988281 310.613281 592.492188 310.285156 591.898438 309.703125 C 591.304688 309.121094 591.003906 308.640625 591.003906 308.265625 C 591.003906 307.886719 590.984375 307.066406 590.949219 305.800781 C 590.917969 304.53125 590.984375 303.453125 591.160156 302.5625 C 591.332031 301.671875 591.601562 300.199219 591.953125 298.144531 C 592.160156 296.433594 592.335938 295.097656 592.480469 294.136719 C 586.789062 294.550781 581.171875 294.824219 575.625 294.960938 Z M 575.625 294.960938 " clip-rule="nonzero"/></clipPath><clipPath id="0698d38357"><path d="M 0.601562 0.769531 L 73.738281 0.769531 L 73.738281 50.28125 L 0.601562 50.28125 Z M 0.601562 0.769531 " clip-rule="nonzero"/></clipPath><clipPath id="d45d062aeb"><path d="M 38.625 33.960938 C 38.203125 33.960938 34.816406 34.097656 28.460938 34.371094 C 22.109375 34.644531 16.351562 34.746094 11.1875 34.679688 C 6.027344 34.609375 2.882812 34.230469 1.761719 33.550781 C 1.40625 32.726562 1.09375 31.199219 0.816406 28.976562 C 0.535156 26.75 0.570312 24.472656 0.921875 22.144531 C 1.273438 19.8125 2.117188 18.511719 3.453125 18.238281 C 8.085938 18.238281 16.246094 18.394531 27.941406 18.703125 C 39.628906 19.011719 49.160156 19.097656 56.535156 18.960938 C 56.671875 17.042969 56.796875 15.484375 56.902344 14.285156 C 57.003906 13.085938 57.148438 11.390625 57.320312 9.199219 C 57.496094 7.007812 57.675781 5.296875 57.851562 4.0625 C 58.027344 2.832031 58.148438 2.175781 58.21875 2.113281 C 58.917969 1.152344 60.777344 0.707031 63.800781 0.777344 C 66.816406 0.84375 68.890625 1.289062 70.015625 2.113281 C 71.136719 3.277344 71.699219 9.0625 71.699219 19.476562 C 72.964844 20.363281 73.597656 22.265625 73.597656 25.179688 C 73.597656 28.089844 72.925781 30.023438 71.59375 30.984375 C 71.59375 31.257812 71.574219 31.992188 71.539062 33.191406 C 71.503906 34.390625 71.472656 35.453125 71.4375 36.378906 C 71.398438 37.300781 71.363281 38.449219 71.328125 39.816406 C 71.292969 41.1875 71.222656 42.371094 71.121094 43.363281 C 71.011719 44.355469 70.886719 45.351562 70.75 46.34375 C 70.609375 47.335938 70.449219 48.140625 70.273438 48.757812 C 70.101562 49.375 69.875 49.75 69.59375 49.886719 C 69.027344 49.886719 68.222656 49.921875 67.167969 49.992188 C 64.921875 50.058594 63.324219 50.109375 62.378906 50.144531 C 61.429688 50.175781 60.289062 50.125 58.953125 49.988281 C 57.617188 49.851562 56.757812 49.746094 56.375 49.679688 C 55.988281 49.613281 55.492188 49.285156 54.898438 48.703125 C 54.304688 48.121094 54.003906 47.640625 54.003906 47.265625 C 54.003906 46.886719 53.984375 46.066406 53.949219 44.800781 C 53.917969 43.53125 53.984375 42.453125 54.160156 41.5625 C 54.332031 40.671875 54.601562 39.199219 54.953125 37.144531 C 55.160156 35.433594 55.335938 34.097656 55.480469 33.136719 C 49.789062 33.550781 44.171875 33.824219 38.625 33.960938 Z M 38.625 33.960938 " clip-rule="nonzero"/></clipPath><clipPath id="8d7416a371"><rect x="0" width="74" y="0" height="51"/></clipPath><clipPath id="b4750eca10"><path d="M 536.421875 319 L 552.152344 319 L 552.152344 335.699219 L 536.421875 335.699219 Z M 536.421875 319 " clip-rule="nonzero"/></clipPath><clipPath id="acb9645ce8"><path d="M 550.484375 335.328125 C 549.496094 335.394531 548.089844 335.480469 546.261719 335.585938 C 544.425781 335.6875 542.511719 335.703125 540.503906 335.636719 C 538.496094 335.566406 537.390625 335.394531 537.179688 335.121094 C 536.476562 333.335938 536.265625 330.65625 536.542969 327.085938 C 536.828125 323.515625 537.316406 321.007812 538.023438 319.566406 C 538.65625 319.222656 540.648438 319.050781 543.992188 319.050781 C 547.335938 319.050781 549.535156 319.1875 550.59375 319.464844 C 550.941406 319.53125 551.222656 319.773438 551.433594 320.183594 C 551.644531 320.597656 551.808594 321.164062 551.910156 321.882812 C 552.015625 322.605469 552.070312 323.222656 552.070312 323.738281 L 552.070312 325.695312 C 552.070312 326.484375 552.070312 326.949219 552.066406 327.085938 C 552.210938 332.445312 551.679688 335.1875 550.484375 335.328125 Z M 550.484375 335.328125 " clip-rule="nonzero"/></clipPath><clipPath id="e4ffe475d4"><path d="M 0.421875 0 L 16.152344 0 L 16.152344 16.699219 L 0.421875 16.699219 Z M 0.421875 0 " clip-rule="nonzero"/></clipPath><clipPath id="94af7b53ae"><path d="M 14.484375 16.328125 C 13.496094 16.394531 12.089844 16.480469 10.261719 16.585938 C 8.425781 16.6875 6.511719 16.703125 4.503906 16.636719 C 2.496094 16.566406 1.390625 16.394531 1.179688 16.121094 C 0.476562 14.335938 0.265625 11.65625 0.542969 8.085938 C 0.828125 4.515625 1.316406 2.007812 2.023438 0.566406 C 2.65625 0.222656 4.648438 0.0507812 7.992188 0.0507812 C 11.335938 0.0507812 13.535156 0.1875 14.59375 0.464844 C 14.941406 0.53125 15.222656 0.773438 15.433594 1.183594 C 15.644531 1.597656 15.808594 2.164062 15.910156 2.882812 C 16.015625 3.605469 16.070312 4.222656 16.070312 4.738281 L 16.070312 6.695312 C 16.070312 7.484375 16.070312 7.949219 16.066406 8.085938 C 16.210938 13.445312 15.679688 16.1875 14.484375 16.328125 Z M 14.484375 16.328125 " clip-rule="nonzero"/></clipPath><clipPath id="2ee03a4a44"><rect x="0" width="17" y="0" height="17"/></clipPath><clipPath id="4d4b0e8536"><path d="M 537.273438 348.808594 L 611.203125 348.808594 L 611.203125 397.652344 L 537.273438 397.652344 Z M 537.273438 348.808594 " clip-rule="nonzero"/></clipPath><clipPath id="27d9fe8a66"><path d="M 594.078125 377.042969 C 594.078125 375.945312 594.179688 371.761719 594.390625 364.492188 C 592.351562 364.769531 589.117188 364.90625 584.691406 364.90625 C 580.265625 364.90625 576.449219 365.214844 573.253906 365.832031 C 570.050781 366.449219 567.261719 367.785156 564.871094 369.84375 C 562.828125 371.488281 561.035156 374.042969 559.492188 377.503906 C 557.945312 380.964844 556.46875 384.480469 555.066406 388.046875 C 553.65625 391.609375 552.285156 394.183594 550.953125 395.761719 C 550.601562 395.828125 550.003906 395.792969 549.160156 395.65625 C 548.3125 395.519531 547.3125 395.296875 546.15625 394.988281 C 544.996094 394.679688 543.886719 394.285156 542.835938 393.804688 C 539.738281 392.636719 537.945312 391.269531 537.457031 389.691406 C 536.964844 388.113281 537.457031 385.816406 538.933594 382.800781 C 541.109375 377.109375 543.289062 372.515625 545.46875 369.019531 C 547.648438 365.109375 550.144531 361.871094 552.957031 359.300781 C 555.765625 356.726562 558.71875 354.859375 561.8125 353.695312 C 564.90625 352.53125 568.28125 351.65625 571.9375 351.074219 C 575.589844 350.488281 579.296875 350.25 583.058594 350.355469 C 586.820312 350.457031 590.8125 350.539062 595.027344 350.609375 C 595.445312 349.992188 596.589844 349.496094 598.453125 349.121094 C 600.316406 348.742188 602.195312 348.710938 604.09375 349.019531 C 605.992188 349.324219 607.117188 350.0625 607.46875 351.230469 C 608.945312 351.160156 609.980469 351.863281 610.574219 353.335938 C 611.175781 354.8125 611.3125 356.4375 611 358.222656 C 610.683594 360.003906 610.105469 361.375 609.261719 362.335938 C 609.679688 369.191406 609.925781 377.179688 610 386.300781 C 609.925781 393.15625 609.429688 396.691406 608.523438 396.894531 C 605.285156 397.238281 602.632812 397.425781 600.558594 397.460938 C 598.484375 397.492188 596.867188 397.289062 595.710938 396.84375 C 594.550781 396.394531 593.742188 395.878906 593.285156 395.296875 C 592.828125 394.714844 592.601562 393.773438 592.601562 392.46875 C 592.601562 391.167969 592.722656 389.863281 592.964844 388.5625 C 593.214844 387.257812 593.460938 385.511719 593.703125 383.316406 C 593.953125 381.121094 594.078125 379.03125 594.078125 377.042969 Z M 594.078125 377.042969 " clip-rule="nonzero"/></clipPath><clipPath id="ee0692f7b8"><path d="M 0.273438 0.808594 L 74.203125 0.808594 L 74.203125 49.652344 L 0.273438 49.652344 Z M 0.273438 0.808594 " clip-rule="nonzero"/></clipPath><clipPath id="b71d527ec0"><path d="M 57.078125 29.042969 C 57.078125 27.945312 57.179688 23.761719 57.390625 16.492188 C 55.351562 16.769531 52.117188 16.90625 47.691406 16.90625 C 43.265625 16.90625 39.449219 17.214844 36.253906 17.832031 C 33.050781 18.449219 30.261719 19.785156 27.871094 21.84375 C 25.828125 23.488281 24.035156 26.042969 22.492188 29.503906 C 20.945312 32.964844 19.46875 36.480469 18.066406 40.046875 C 16.65625 43.609375 15.285156 46.183594 13.953125 47.761719 C 13.601562 47.828125 13.003906 47.792969 12.160156 47.65625 C 11.3125 47.519531 10.3125 47.296875 9.15625 46.988281 C 7.996094 46.679688 6.886719 46.285156 5.835938 45.804688 C 2.738281 44.636719 0.945312 43.269531 0.457031 41.691406 C -0.0351562 40.113281 0.457031 37.816406 1.933594 34.800781 C 4.109375 29.109375 6.289062 24.515625 8.46875 21.019531 C 10.648438 17.109375 13.144531 13.871094 15.957031 11.300781 C 18.765625 8.726562 21.71875 6.859375 24.8125 5.695312 C 27.90625 4.53125 31.28125 3.65625 34.9375 3.074219 C 38.589844 2.488281 42.296875 2.25 46.058594 2.355469 C 49.820312 2.457031 53.8125 2.539062 58.027344 2.609375 C 58.445312 1.992188 59.589844 1.496094 61.453125 1.121094 C 63.316406 0.742188 65.195312 0.710938 67.09375 1.019531 C 68.992188 1.324219 70.117188 2.0625 70.46875 3.230469 C 71.945312 3.160156 72.980469 3.863281 73.574219 5.335938 C 74.175781 6.8125 74.3125 8.4375 74 10.222656 C 73.683594 12.003906 73.105469 13.375 72.261719 14.335938 C 72.679688 21.191406 72.925781 29.179688 73 38.300781 C 72.925781 45.15625 72.429688 48.691406 71.523438 48.894531 C 68.285156 49.238281 65.632812 49.425781 63.558594 49.460938 C 61.484375 49.492188 59.867188 49.289062 58.710938 48.84375 C 57.550781 48.394531 56.742188 47.878906 56.285156 47.296875 C 55.828125 46.714844 55.601562 45.773438 55.601562 44.46875 C 55.601562 43.167969 55.722656 41.863281 55.964844 40.5625 C 56.214844 39.257812 56.460938 37.511719 56.703125 35.316406 C 56.953125 33.121094 57.078125 31.03125 57.078125 29.042969 Z M 57.078125 29.042969 " clip-rule="nonzero"/></clipPath><clipPath id="a699965e1f"><rect x="0" width="75" y="0" height="50"/></clipPath><clipPath id="7825b80a87"><path d="M 535.875 409.652344 L 607.46875 409.652344 L 607.46875 458.457031 L 535.875 458.457031 Z M 535.875 409.652344 " clip-rule="nonzero"/></clipPath><clipPath id="9f5d1a8b04"><path d="M 539.949219 411.289062 C 540.582031 410.398438 542.425781 409.917969 545.472656 409.851562 C 548.527344 409.78125 550.613281 410.160156 551.738281 410.980469 C 552.085938 411.253906 552.4375 412.214844 552.785156 413.855469 C 556.292969 413.992188 565.640625 413.890625 580.828125 413.546875 C 596.011719 413.207031 604.167969 413.242188 605.289062 413.652344 C 606.621094 414.199219 607.34375 415.964844 607.445312 418.9375 C 607.554688 421.917969 607.007812 423.949219 605.820312 425.046875 C 602.589844 426.140625 598.042969 426.957031 592.191406 427.507812 C 586.335938 428.054688 579.335938 428.53125 571.199219 428.945312 C 563.0625 429.355469 557.378906 429.695312 554.15625 429.96875 C 554.15625 432.089844 554.136719 434.5 554.097656 437.203125 C 554.0625 439.90625 554.03125 442.882812 553.996094 446.136719 C 553.960938 449.382812 553.941406 451.828125 553.941406 453.472656 C 553.875 455.25 553.625 456.207031 553.207031 456.347656 C 551.378906 457.03125 548.683594 457.644531 545.105469 458.191406 C 541.808594 458.605469 539.597656 458.535156 538.472656 457.988281 C 537.351562 457.441406 536.863281 455.898438 537 453.371094 C 537.074219 450.632812 537.386719 446.730469 537.949219 441.667969 C 538.511719 436.605469 538.796875 432.636719 538.796875 429.761719 C 537.386719 429.558594 536.621094 429.285156 536.480469 428.941406 C 536.199219 428.121094 536.003906 426.511719 535.898438 424.117188 C 535.792969 421.722656 536.042969 419.378906 536.636719 417.085938 C 537.234375 414.792969 538.234375 413.648438 539.632812 413.648438 C 539.777344 412.28125 539.882812 411.496094 539.949219 411.289062 Z M 539.949219 411.289062 " clip-rule="nonzero"/></clipPath><clipPath id="0b07bec8c3"><path d="M 0.875 0.679688 L 72.46875 0.679688 L 72.46875 49.457031 L 0.875 49.457031 Z M 0.875 0.679688 " clip-rule="nonzero"/></clipPath><clipPath id="80135642fa"><path d="M 4.949219 2.289062 C 5.582031 1.398438 7.425781 0.917969 10.472656 0.851562 C 13.527344 0.78125 15.613281 1.160156 16.738281 1.980469 C 17.085938 2.253906 17.4375 3.214844 17.785156 4.855469 C 21.292969 4.992188 30.640625 4.890625 45.828125 4.546875 C 61.011719 4.207031 69.167969 4.242188 70.289062 4.652344 C 71.621094 5.199219 72.34375 6.964844 72.445312 9.9375 C 72.554688 12.917969 72.007812 14.949219 70.820312 16.046875 C 67.589844 17.140625 63.042969 17.957031 57.191406 18.507812 C 51.335938 19.054688 44.335938 19.53125 36.199219 19.945312 C 28.0625 20.355469 22.378906 20.695312 19.15625 20.96875 C 19.15625 23.089844 19.136719 25.5 19.097656 28.203125 C 19.0625 30.90625 19.03125 33.882812 18.996094 37.136719 C 18.960938 40.382812 18.941406 42.828125 18.941406 44.472656 C 18.875 46.25 18.625 47.207031 18.207031 47.347656 C 16.378906 48.03125 13.683594 48.644531 10.105469 49.191406 C 6.808594 49.605469 4.597656 49.535156 3.472656 48.988281 C 2.351562 48.441406 1.863281 46.898438 2 44.371094 C 2.074219 41.632812 2.386719 37.730469 2.949219 32.667969 C 3.511719 27.605469 3.796875 23.636719 3.796875 20.761719 C 2.386719 20.558594 1.621094 20.285156 1.480469 19.941406 C 1.199219 19.121094 1.003906 17.511719 0.898438 15.117188 C 0.792969 12.722656 1.042969 10.378906 1.636719 8.085938 C 2.234375 5.792969 3.234375 4.648438 4.632812 4.648438 C 4.777344 3.28125 4.882812 2.496094 4.949219 2.289062 Z M 4.949219 2.289062 " clip-rule="nonzero"/></clipPath><clipPath id="a95796cfc1"><rect x="0" width="73" y="0" height="50"/></clipPath><clipPath id="fa83944d9c"><path d="M 530.75 563.960938 L 613.25 563.960938 L 613.25 646.460938 L 530.75 646.460938 Z M 530.75 563.960938 " clip-rule="nonzero"/></clipPath><clipPath id="1ef1198f55"><path d="M 555.015625 517.074219 L 567.765625 517.074219 L 567.765625 526.824219 L 555.015625 526.824219 Z M 555.015625 517.074219 " clip-rule="nonzero"/></clipPath><clipPath id="97fa78a09a"><path d="M 531.820312 468.542969 L 567.339844 468.542969 L 567.339844 532.832031 L 531.820312 532.832031 Z M 531.820312 468.542969 " clip-rule="nonzero"/></clipPath><clipPath id="3309e2c9a9"><path d="M 565.601562 476.878906 C 558.730469 481.949219 551.859375 487.023438 544.988281 492.09375 L 558.238281 488.167969 C 561.65625 487.210938 564.570312 488.691406 565.109375 490.621094 C 565.542969 492.167969 564.378906 493.71875 564.113281 494.058594 L 555.292969 504.363281 C 557.097656 503.710938 558.890625 503.054688 560.695312 502.402344 C 562.699219 501.625 564.746094 502.125 565.601562 503.382812 C 566.015625 503.992188 566.257812 504.929688 566.125 505.871094 C 566.03125 506.527344 565.777344 507.023438 565.601562 507.308594 C 556.84375 516.316406 552.226562 520.53125 550.097656 521.949219 C 550.351562 521.964844 550.613281 521.988281 550.878906 522.035156 C 551.898438 522.363281 553.316406 522.945312 554.804688 523.996094 C 556.480469 525.183594 557.582031 526.503906 558.238281 527.433594 C 559.160156 528.878906 558.925781 530.753906 557.75 531.847656 C 556.71875 532.808594 555.136719 533.011719 553.824219 532.339844 C 552.175781 531.070312 550.820312 530.070312 549.894531 529.394531 C 548.203125 528.164062 546.640625 526.757812 544.988281 525.46875 C 544.234375 524.882812 543.355469 524.203125 543.023438 523.015625 C 542.769531 522.101562 542.957031 521.304688 543.023438 521.050781 C 543.296875 520.011719 543.949219 519.359375 544.960938 518.328125 C 546.105469 517.179688 547.421875 516.054688 547.933594 515.652344 C 549.246094 514.621094 551.109375 513.128906 553.332031 511.234375 C 551.441406 511.703125 550.109375 512.039062 549.40625 512.21875 C 547.90625 512.59375 547.105469 512.800781 545.96875 512.707031 C 545.203125 512.644531 544.164062 512.496094 543.515625 511.726562 C 542.734375 510.800781 542.777344 509.242188 543.515625 507.800781 C 546.71875 503.789062 549.925781 499.785156 553.136719 495.777344 L 539.589844 501.910156 C 536.390625 503.164062 533.148438 501.769531 532.226562 499.457031 C 531.285156 497.101562 533.113281 494.664062 533.207031 494.546875 C 541.0625 486.859375 548.914062 479.171875 556.765625 471.480469 C 556.78125 471.304688 556.945312 469.847656 558.238281 469.027344 C 559.261719 468.378906 560.59375 468.378906 561.675781 469.027344 C 562.296875 469.300781 562.957031 469.625 563.636719 470.007812 C 564.78125 470.652344 565.761719 471.328125 566.582031 471.972656 C 566.699219 472.148438 567.511719 473.386719 567.074219 474.917969 C 566.730469 476.109375 565.847656 476.722656 565.601562 476.878906 Z M 565.601562 476.878906 " clip-rule="nonzero"/></clipPath><clipPath id="76bc9212c0"><path d="M 0.839844 0.542969 L 36.339844 0.542969 L 36.339844 64.832031 L 0.839844 64.832031 Z M 0.839844 0.542969 " clip-rule="nonzero"/></clipPath><clipPath id="55d452e728"><path d="M 34.601562 8.878906 C 27.730469 13.949219 20.859375 19.023438 13.988281 24.09375 L 27.238281 20.167969 C 30.65625 19.210938 33.570312 20.691406 34.109375 22.621094 C 34.542969 24.167969 33.378906 25.71875 33.113281 26.058594 L 24.292969 36.363281 C 26.097656 35.710938 27.890625 35.054688 29.695312 34.402344 C 31.699219 33.625 33.746094 34.125 34.601562 35.382812 C 35.015625 35.992188 35.257812 36.929688 35.125 37.871094 C 35.03125 38.527344 34.777344 39.023438 34.601562 39.308594 C 25.84375 48.316406 21.226562 52.53125 19.097656 53.949219 C 19.351562 53.964844 19.613281 53.988281 19.878906 54.035156 C 20.898438 54.363281 22.316406 54.945312 23.804688 55.996094 C 25.480469 57.183594 26.582031 58.503906 27.238281 59.433594 C 28.160156 60.878906 27.925781 62.753906 26.75 63.847656 C 25.71875 64.808594 24.136719 65.011719 22.824219 64.339844 C 21.175781 63.070312 19.820312 62.070312 18.894531 61.394531 C 17.203125 60.164062 15.640625 58.757812 13.988281 57.46875 C 13.234375 56.882812 12.355469 56.203125 12.023438 55.015625 C 11.769531 54.101562 11.957031 53.304688 12.023438 53.050781 C 12.296875 52.011719 12.949219 51.359375 13.960938 50.328125 C 15.105469 49.179688 16.421875 48.054688 16.933594 47.652344 C 18.246094 46.621094 20.109375 45.128906 22.332031 43.234375 C 20.441406 43.703125 19.109375 44.039062 18.40625 44.21875 C 16.90625 44.59375 16.105469 44.800781 14.96875 44.707031 C 14.203125 44.644531 13.164062 44.496094 12.515625 43.726562 C 11.734375 42.800781 11.777344 41.242188 12.515625 39.800781 C 15.71875 35.789062 18.925781 31.785156 22.136719 27.777344 L 8.589844 33.910156 C 5.390625 35.164062 2.148438 33.769531 1.226562 31.457031 C 0.285156 29.101562 2.113281 26.664062 2.207031 26.546875 C 10.0625 18.859375 17.914062 11.171875 25.765625 3.480469 C 25.78125 3.304688 25.945312 1.847656 27.238281 1.027344 C 28.261719 0.378906 29.59375 0.378906 30.675781 1.027344 C 31.296875 1.300781 31.957031 1.625 32.636719 2.007812 C 33.78125 2.652344 34.761719 3.328125 35.582031 3.972656 C 35.699219 4.148438 36.511719 5.386719 36.074219 6.917969 C 35.730469 8.109375 34.847656 8.722656 34.601562 8.878906 Z M 34.601562 8.878906 " clip-rule="nonzero"/></clipPath><clipPath id="0ca88f7ed8"><rect x="0" width="37" y="0" height="65"/></clipPath><clipPath id="12f9d1b840"><path d="M 531.726562 468.308594 L 567.726562 468.308594 L 567.726562 532.808594 L 531.726562 532.808594 Z M 531.726562 468.308594 " clip-rule="nonzero"/></clipPath><clipPath id="1da188edda"><path d="M 532.019531 523.660156 L 555 523.660156 L 555 547.660156 L 532.019531 547.660156 Z M 532.019531 523.660156 " clip-rule="nonzero"/></clipPath><clipPath id="8130676013"><path d="M 532.019531 523.660156 L 555.269531 523.660156 L 555.269531 547.660156 L 532.019531 547.660156 Z M 532.019531 523.660156 " clip-rule="nonzero"/></clipPath><clipPath id="ba31e1e11a"><path d="M 569.828125 482.664062 L 585.796875 482.664062 L 585.796875 496.074219 L 569.828125 496.074219 Z M 569.828125 482.664062 " clip-rule="nonzero"/></clipPath><clipPath id="1613bceb5e"><path d="M 571.488281 484.742188 C 572.5625 483.46875 574.097656 482.882812 575.410156 483.273438 C 576.117188 483.484375 576.597656 483.929688 576.878906 484.253906 C 577.125 484.65625 577.371094 485.0625 577.613281 485.46875 C 578.441406 485.054688 579.34375 484.644531 580.308594 484.253906 C 581.878906 483.621094 583.363281 483.144531 584.71875 482.78125 C 585.46875 482.546875 585.65625 482.726562 585.699219 482.78125 C 585.894531 483.023438 585.601562 483.554688 585.210938 484.253906 C 584.855469 484.886719 584.5 485.378906 584.230469 485.722656 C 582.269531 488.664062 580.308594 491.605469 578.347656 494.546875 C 578.164062 494.757812 577.136719 495.914062 575.410156 496.015625 C 573.394531 496.132812 572.125 494.71875 571.976562 494.546875 C 571.4375 494.007812 570.4375 492.859375 570.019531 491.113281 C 569.21875 487.796875 571.1875 485.136719 571.488281 484.742188 Z M 571.488281 484.742188 " clip-rule="nonzero"/></clipPath><clipPath id="204e6fc5f6"><path d="M 0.828125 0.664062 L 16.796875 0.664062 L 16.796875 14.074219 L 0.828125 14.074219 Z M 0.828125 0.664062 " clip-rule="nonzero"/></clipPath><clipPath id="c96292bde3"><path d="M 2.488281 2.742188 C 3.5625 1.46875 5.097656 0.882812 6.410156 1.273438 C 7.117188 1.484375 7.597656 1.929688 7.878906 2.253906 C 8.125 2.65625 8.371094 3.0625 8.613281 3.46875 C 9.441406 3.054688 10.34375 2.644531 11.308594 2.253906 C 12.878906 1.621094 14.363281 1.144531 15.71875 0.78125 C 16.46875 0.546875 16.65625 0.726562 16.699219 0.78125 C 16.894531 1.023438 16.601562 1.554688 16.210938 2.253906 C 15.855469 2.886719 15.5 3.378906 15.230469 3.722656 C 13.269531 6.664062 11.308594 9.605469 9.347656 12.546875 C 9.164062 12.757812 8.136719 13.914062 6.410156 14.015625 C 4.394531 14.132812 3.125 12.71875 2.976562 12.546875 C 2.4375 12.007812 1.4375 10.859375 1.019531 9.113281 C 0.21875 5.796875 2.1875 3.136719 2.488281 2.742188 Z M 2.488281 2.742188 " clip-rule="nonzero"/></clipPath><clipPath id="ab4605897b"><rect x="0" width="17" y="0" height="15"/></clipPath><clipPath id="6a0a07410d"><path d="M 569.484375 482.433594 L 585.984375 482.433594 L 585.984375 495.933594 L 569.484375 495.933594 Z M 569.484375 482.433594 " clip-rule="nonzero"/></clipPath><clipPath id="28a698c64a"><path d="M 597.121094 479.324219 L 615 479.324219 L 615 495 L 597.121094 495 Z M 597.121094 479.324219 " clip-rule="nonzero"/></clipPath><clipPath id="e260249859"><path d="M 597.121094 479.324219 L 615.121094 479.324219 L 615.121094 495 L 597.121094 495 Z M 597.121094 479.324219 " clip-rule="nonzero"/></clipPath><clipPath id="1b655bb5f9"><path d="M 568.867188 469.226562 L 623 469.226562 L 623 558.882812 L 568.867188 558.882812 Z M 568.867188 469.226562 " clip-rule="nonzero"/></clipPath><clipPath id="1e434c9aee"><path d="M 586.105469 471.964844 C 585.597656 471.597656 585.292969 471.726562 585.125 471.472656 C 584.882812 471.113281 585.207031 470.402344 585.617188 470 C 585.972656 469.65625 586.390625 469.546875 586.597656 469.511719 C 590.363281 469.105469 593.804688 470.367188 595.425781 472.945312 C 595.804688 473.542969 596.269531 474.507812 596.410156 475.890625 L 596.410156 500.417969 C 597.492188 499.992188 599.1875 499.472656 601.316406 499.4375 C 602.921875 499.410156 604.265625 499.664062 605.238281 499.925781 C 607.140625 500.445312 608.347656 502.160156 608.183594 503.851562 C 608.058594 505.109375 607.191406 506.21875 605.960938 506.78125 C 603.269531 507.277344 600.574219 507.773438 597.878906 508.269531 C 597.4375 508.589844 597.125 508.933594 596.898438 509.25 C 596.574219 509.703125 596.632812 510.214844 596.636719 510.449219 C 596.640625 511.453125 596.714844 513.671875 596.898438 516.609375 L 597.390625 516.609375 C 600.179688 516.0625 603.125 515.566406 606.21875 515.136719 C 609.289062 514.710938 612.238281 514.390625 615.050781 514.152344 C 616.007812 514.320312 617.1875 514.609375 618.484375 515.136719 C 619.617188 515.597656 620.554688 516.125 621.292969 516.609375 C 623.164062 518.363281 623.429688 520.773438 622.410156 522.003906 C 621.652344 522.917969 620.351562 522.980469 619.957031 522.984375 C 612.269531 523.476562 604.585938 523.964844 596.898438 524.457031 L 596.898438 544.570312 C 596.320312 547.199219 595.542969 549.152344 594.9375 550.457031 C 594.210938 552.023438 593.878906 552.324219 592.972656 554.382812 C 592.644531 555.132812 592.25 556.089844 591.503906 557.324219 C 591.121094 557.960938 590.769531 558.460938 590.519531 558.796875 C 590.015625 557.859375 589.492188 556.710938 589.050781 555.363281 C 588.4375 553.488281 588.175781 551.800781 588.070312 550.457031 C 587.90625 542.609375 587.742188 534.757812 587.578125 526.910156 L 579.238281 529.363281 C 578.074219 529.597656 576.140625 529.832031 573.839844 529.363281 C 572.144531 529.015625 570.820312 528.398438 569.917969 527.890625 C 569.171875 527.53125 568.984375 527.050781 568.9375 526.910156 C 568.628906 525.996094 569.355469 524.664062 570.898438 523.964844 C 573.902344 523.351562 577.019531 522.546875 580.21875 521.515625 C 580.714844 521.351562 581.207031 521.1875 581.691406 521.023438 C 582.453125 520.765625 583.277344 520.445312 584.144531 520.042969 C 585.488281 519.414062 586.632812 518.730469 587.578125 518.078125 L 587.578125 510.230469 L 581.199219 509.738281 C 580.308594 509.621094 579.097656 509.359375 577.765625 508.757812 C 576.738281 508.292969 575.921875 507.757812 575.3125 507.285156 C 575.265625 507.265625 574.394531 506.914062 574.332031 506.304688 C 574.269531 505.6875 575.039062 504.867188 576.292969 504.832031 L 587.578125 502.871094 L 587.085938 473.925781 C 587.078125 473.613281 587.011719 473.003906 586.597656 472.453125 C 586.519531 472.351562 586.367188 472.152344 586.105469 471.964844 Z M 586.105469 471.964844 " clip-rule="nonzero"/></clipPath><clipPath id="e7dfed7877"><path d="M 0.867188 0.226562 L 55 0.226562 L 55 89.882812 L 0.867188 89.882812 Z M 0.867188 0.226562 " clip-rule="nonzero"/></clipPath><clipPath id="1ac58e3185"><path d="M 18.105469 2.964844 C 17.597656 2.597656 17.292969 2.726562 17.125 2.472656 C 16.882812 2.113281 17.207031 1.402344 17.617188 1 C 17.972656 0.65625 18.390625 0.546875 18.597656 0.511719 C 22.363281 0.105469 25.804688 1.367188 27.425781 3.945312 C 27.804688 4.542969 28.269531 5.507812 28.410156 6.890625 L 28.410156 31.417969 C 29.492188 30.992188 31.1875 30.472656 33.316406 30.4375 C 34.921875 30.410156 36.265625 30.664062 37.238281 30.925781 C 39.140625 31.445312 40.347656 33.160156 40.183594 34.851562 C 40.058594 36.109375 39.191406 37.21875 37.960938 37.78125 C 35.269531 38.277344 32.574219 38.773438 29.878906 39.269531 C 29.4375 39.589844 29.125 39.933594 28.898438 40.25 C 28.574219 40.703125 28.632812 41.214844 28.636719 41.449219 C 28.640625 42.453125 28.714844 44.671875 28.898438 47.609375 L 29.390625 47.609375 C 32.179688 47.0625 35.125 46.566406 38.21875 46.136719 C 41.289062 45.710938 44.238281 45.390625 47.050781 45.152344 C 48.007812 45.320312 49.1875 45.609375 50.484375 46.136719 C 51.617188 46.597656 52.554688 47.125 53.292969 47.609375 C 55.164062 49.363281 55.429688 51.773438 54.410156 53.003906 C 53.652344 53.917969 52.351562 53.980469 51.957031 53.984375 C 44.269531 54.476562 36.585938 54.964844 28.898438 55.457031 L 28.898438 75.570312 C 28.320312 78.199219 27.542969 80.152344 26.9375 81.457031 C 26.210938 83.023438 25.878906 83.324219 24.972656 85.382812 C 24.644531 86.132812 24.25 87.089844 23.503906 88.324219 C 23.121094 88.960938 22.769531 89.460938 22.519531 89.796875 C 22.015625 88.859375 21.492188 87.710938 21.050781 86.363281 C 20.4375 84.488281 20.175781 82.800781 20.070312 81.457031 C 19.90625 73.609375 19.742188 65.757812 19.578125 57.910156 L 11.238281 60.363281 C 10.074219 60.597656 8.140625 60.832031 5.839844 60.363281 C 4.144531 60.015625 2.820312 59.398438 1.917969 58.890625 C 1.171875 58.53125 0.984375 58.050781 0.9375 57.910156 C 0.628906 56.996094 1.355469 55.664062 2.898438 54.964844 C 5.902344 54.351562 9.019531 53.546875 12.21875 52.515625 C 12.714844 52.351562 13.207031 52.1875 13.691406 52.023438 C 14.453125 51.765625 15.277344 51.445312 16.144531 51.042969 C 17.488281 50.414062 18.632812 49.730469 19.578125 49.078125 L 19.578125 41.230469 L 13.199219 40.738281 C 12.308594 40.621094 11.097656 40.359375 9.765625 39.757812 C 8.738281 39.292969 7.921875 38.757812 7.3125 38.285156 C 7.265625 38.265625 6.394531 37.914062 6.332031 37.304688 C 6.269531 36.6875 7.039062 35.867188 8.292969 35.832031 L 19.578125 33.871094 L 19.085938 4.925781 C 19.078125 4.613281 19.011719 4.003906 18.597656 3.453125 C 18.519531 3.351562 18.367188 3.152344 18.105469 2.964844 Z M 18.105469 2.964844 " clip-rule="nonzero"/></clipPath><clipPath id="884233170f"><rect x="0" width="55" y="0" height="90"/></clipPath><clipPath id="72ebd81315"><path d="M 568.636719 469.207031 L 623.386719 469.207031 L 623.386719 559.207031 L 568.636719 559.207031 Z M 568.636719 469.207031 " clip-rule="nonzero"/></clipPath><clipPath id="bf37dc9fcc"><path d="M 556.773438 590.1875 L 586.773438 590.1875 L 586.773438 620.1875 L 556.773438 620.1875 Z M 556.773438 590.1875 " clip-rule="nonzero"/></clipPath><clipPath id="818daf850b"><path d="M 558.246094 593.167969 L 573.542969 593.167969 L 573.542969 608.464844 L 558.246094 608.464844 Z M 558.246094 593.167969 " clip-rule="nonzero"/></clipPath><clipPath id="81ed82f225"><path d="M 573.484375 600.789062 C 573.554688 603.046875 572.421875 604.746094 571.960938 605.359375 C 571.84375 605.511719 569.535156 608.46875 565.867188 608.40625 C 562.1875 608.339844 558.246094 605.261719 558.246094 600.789062 C 558.246094 596.578125 561.65625 593.167969 565.867188 593.167969 C 570.46875 593.167969 573.371094 597.339844 573.484375 600.789062 Z M 573.484375 600.789062 " clip-rule="nonzero"/></clipPath><clipPath id="3d1e00d71a"><path d="M 0.246094 0.167969 L 15.542969 0.167969 L 15.542969 15.464844 L 0.246094 15.464844 Z M 0.246094 0.167969 " clip-rule="nonzero"/></clipPath><clipPath id="677651bcd6"><path d="M 15.484375 7.789062 C 15.554688 10.046875 14.421875 11.746094 13.960938 12.359375 C 13.84375 12.511719 11.535156 15.46875 7.867188 15.40625 C 4.1875 15.339844 0.246094 12.261719 0.246094 7.789062 C 0.246094 3.578125 3.65625 0.167969 7.867188 0.167969 C 12.46875 0.167969 15.371094 4.339844 15.484375 7.789062 Z M 15.484375 7.789062 " clip-rule="nonzero"/></clipPath><clipPath id="95a6b17403"><rect x="0" width="16" y="0" height="16"/></clipPath><clipPath id="d112cb0088"><path d="M 560.125 590.109375 L 587 590.109375 L 587 611.433594 L 560.125 611.433594 Z M 560.125 590.109375 " clip-rule="nonzero"/></clipPath><clipPath id="c2f9c3909f"><path d="M 585.578125 611.433594 C 585.679688 610.113281 585.609375 608.105469 584.597656 606.050781 C 584.234375 605.308594 583.777344 604.402344 582.804688 603.601562 C 580.992188 602.113281 578.835938 602.171875 578.046875 602.1875 C 575.6875 602.234375 574.046875 603.296875 573.464844 603.714844 C 572.496094 604.671875 571.527344 605.632812 570.5625 606.589844 C 567.082031 602.984375 563.605469 599.378906 560.125 595.773438 C 560.894531 594.816406 562.164062 593.46875 564.042969 592.347656 C 567.792969 590.105469 573.109375 589.277344 578.046875 591.492188 C 578.804688 591.832031 584.546875 594.527344 586.394531 601.15625 C 587.78125 606.132812 586.109375 610.25 585.578125 611.433594 Z M 585.578125 611.433594 " clip-rule="nonzero"/></clipPath><clipPath id="b6e7638e33"><path d="M 0.125 0.160156 L 27 0.160156 L 27 21.433594 L 0.125 21.433594 Z M 0.125 0.160156 " clip-rule="nonzero"/></clipPath><clipPath id="39fda3e14c"><path d="M 25.578125 21.433594 C 25.679688 20.113281 25.609375 18.105469 24.597656 16.050781 C 24.234375 15.308594 23.777344 14.402344 22.804688 13.601562 C 20.992188 12.113281 18.835938 12.171875 18.046875 12.1875 C 15.6875 12.234375 14.046875 13.296875 13.464844 13.714844 C 12.496094 14.671875 11.527344 15.632812 10.5625 16.589844 C 7.082031 12.984375 3.605469 9.378906 0.125 5.773438 C 0.894531 4.816406 2.164062 3.46875 4.042969 2.347656 C 7.792969 0.105469 13.109375 -0.722656 18.046875 1.492188 C 18.804688 1.832031 24.546875 4.527344 26.394531 11.15625 C 27.78125 16.132812 26.109375 20.25 25.578125 21.433594 Z M 25.578125 21.433594 " clip-rule="nonzero"/></clipPath><clipPath id="30cd2bd64e"><rect x="0" width="27" y="0" height="22"/></clipPath><clipPath id="e0844af216"><path d="M 570.679688 601.773438 L 586 601.773438 L 586 617.070312 L 570.679688 617.070312 Z M 570.679688 601.773438 " clip-rule="nonzero"/></clipPath><clipPath id="9d9b519ce3"><path d="M 585.976562 609.394531 C 586.050781 611.652344 584.914062 613.351562 584.453125 613.964844 C 584.339844 614.117188 582.03125 617.074219 578.359375 617.011719 C 574.679688 616.945312 570.742188 613.867188 570.742188 609.394531 C 570.742188 605.183594 574.152344 601.773438 578.359375 601.773438 C 582.960938 601.773438 585.867188 605.945312 585.976562 609.394531 Z M 585.976562 609.394531 " clip-rule="nonzero"/></clipPath><clipPath id="96b1999f0b"><path d="M 0.71875 0.773438 L 16 0.773438 L 16 16.039062 L 0.71875 16.039062 Z M 0.71875 0.773438 " clip-rule="nonzero"/></clipPath><clipPath id="d10725bed6"><path d="M 15.976562 8.394531 C 16.050781 10.652344 14.914062 12.351562 14.453125 12.964844 C 14.339844 13.117188 12.03125 16.074219 8.359375 16.011719 C 4.679688 15.945312 0.742188 12.867188 0.742188 8.394531 C 0.742188 4.183594 4.152344 0.773438 8.359375 0.773438 C 12.960938 0.773438 15.867188 4.945312 15.976562 8.394531 Z M 15.976562 8.394531 " clip-rule="nonzero"/></clipPath><clipPath id="51b0a36dd9"><rect x="0" width="16" y="0" height="17"/></clipPath><clipPath id="168cd0f941"><path d="M 586.585938 584.886719 L 592.585938 584.886719 L 592.585938 592.386719 L 586.585938 592.386719 Z M 586.585938 584.886719 " clip-rule="nonzero"/></clipPath><clipPath id="07c94dc43b"><path d="M 591.179688 591.707031 L 597.179688 591.707031 L 597.179688 599.207031 L 591.179688 599.207031 Z M 591.179688 591.707031 " clip-rule="nonzero"/></clipPath><clipPath id="45eed0dc06"><path d="M 592.847656 580.671875 L 598.847656 580.671875 L 598.847656 588.171875 L 592.847656 588.171875 Z M 592.847656 580.671875 " clip-rule="nonzero"/></clipPath><clipPath id="5f5b5265ff"><path d="M 597.4375 587.492188 L 603.4375 587.492188 L 603.4375 594.992188 L 597.4375 594.992188 Z M 597.4375 587.492188 " clip-rule="nonzero"/></clipPath><clipPath id="615da8aadc"><path d="M 589.808594 582.765625 L 600.308594 582.765625 L 600.308594 596.265625 L 589.808594 596.265625 Z M 589.808594 582.765625 " clip-rule="nonzero"/></clipPath><clipPath id="1f507c61da"><path d="M 591.199219 611.65625 L 597.199219 611.65625 L 597.199219 619.15625 L 591.199219 619.15625 Z M 591.199219 611.65625 " clip-rule="nonzero"/></clipPath><clipPath id="7356cc4d6f"><path d="M 586.578125 618.457031 L 592.578125 618.457031 L 592.578125 625.957031 L 586.578125 625.957031 Z M 586.578125 618.457031 " clip-rule="nonzero"/></clipPath><clipPath id="d4c43ee9f6"><path d="M 594.402344 613.792969 L 600.402344 613.792969 L 600.402344 621.292969 L 594.402344 621.292969 Z M 594.402344 613.792969 " clip-rule="nonzero"/></clipPath><clipPath id="7b5b47d82c"><path d="M 589.785156 620.59375 L 595.785156 620.59375 L 595.785156 628 L 589.785156 628 Z M 589.785156 620.59375 " clip-rule="nonzero"/></clipPath><clipPath id="fa12998e69"><path d="M 597.300781 615.925781 L 603.300781 615.925781 L 603.300781 623.425781 L 597.300781 623.425781 Z M 597.300781 615.925781 " clip-rule="nonzero"/></clipPath><clipPath id="94c6e15551"><path d="M 592.679688 622.726562 L 598.679688 622.726562 L 598.679688 630.226562 L 592.679688 630.226562 Z M 592.679688 622.726562 " clip-rule="nonzero"/></clipPath><clipPath id="6d080fd116"><path d="M 543.265625 613.863281 L 549.265625 613.863281 L 549.265625 621.363281 L 543.265625 621.363281 Z M 543.265625 613.863281 " clip-rule="nonzero"/></clipPath><clipPath id="0e6a42ce47"><path d="M 547.859375 620.683594 L 553.859375 620.683594 L 553.859375 628.183594 L 547.859375 628.183594 Z M 547.859375 620.683594 " clip-rule="nonzero"/></clipPath><clipPath id="af5d76850d"><path d="M 540.226562 615.957031 L 550.726562 615.957031 L 550.726562 629.457031 L 540.226562 629.457031 Z M 540.226562 615.957031 " clip-rule="nonzero"/></clipPath><clipPath id="d943d18c35"><path d="M 546.316406 611.808594 L 556.816406 611.808594 L 556.816406 625.308594 L 546.316406 625.308594 Z M 546.316406 611.808594 " clip-rule="nonzero"/></clipPath><clipPath id="f0757779ae"><path d="M 543.101562 582.78125 L 553.601562 582.78125 L 553.601562 597 L 543.101562 597 Z M 543.101562 582.78125 " clip-rule="nonzero"/></clipPath><clipPath id="eb19aaa231"><path d="M 546.164062 584.90625 L 556.664062 584.90625 L 556.664062 599 L 546.164062 599 Z M 546.164062 584.90625 " clip-rule="nonzero"/></clipPath><clipPath id="8a43e1de59"><path d="M 540.0625 580.785156 L 550.5625 580.785156 L 550.5625 595 L 540.0625 595 Z M 540.0625 580.785156 " clip-rule="nonzero"/></clipPath><clipPath id="fa655304e1"><path d="M 529.113281 654.683594 L 611.613281 654.683594 L 611.613281 737.183594 L 529.113281 737.183594 Z M 529.113281 654.683594 " clip-rule="nonzero"/></clipPath><clipPath id="ef1a251a35"><path d="M 555.195312 681.8125 L 585.195312 681.8125 L 585.195312 711.8125 L 555.195312 711.8125 Z M 555.195312 681.8125 " clip-rule="nonzero"/></clipPath></defs><g clip-path="url(#bb8c557147)"><g clip-path="url(#0c6e82116b)"><g transform="matrix(1, 0, 0, 1, 197, 58)"><g clip-path="url(#5bb1aec00d)"><g clip-path="url(#47d9b799e7)"><g clip-path="url(#95477465f9)"><path fill="#ffffff" d="M 0.824219 0.121094 L 210.296875 0.121094 L 210.296875 264.269531 L 0.824219 264.269531 Z M 0.824219 0.121094 " fill-opacity="1" fill-rule="nonzero"/></g></g></g></g></g></g><g clip-path="url(#4182931a6c)"><g clip-path="url(#949b82304f)"><g transform="matrix(1, 0, 0, 1, 411, 63)"><g clip-path="url(#2a73ebb478)"><g clip-path="url(#9dc14185fb)"><g clip-path="url(#a38d03cc7f)"><path fill="#ffffff" d="M 0.257812 0.832031 L 108.449219 0.832031 L 108.449219 256.199219 L 0.257812 256.199219 Z M 0.257812 0.832031 " fill-opacity="1" fill-rule="nonzero"/></g></g></g></g></g></g><g clip-path="url(#937c3a9e23)"><g clip-path="url(#471a0b2246)"><g transform="matrix(1, 0, 0, 1, 195, 333)"><g clip-path="url(#90e1b2f680)"><g clip-path="url(#140b6e66e4)"><g clip-path="url(#d6497fbbdd)"><path fill="#ffffff" d="M 0.84375 0.398438 L 158.726562 0.398438 L 158.726562 198.441406 L 0.84375 198.441406 Z M 0.84375 0.398438 " fill-opacity="1" fill-rule="nonzero"/></g></g></g></g></g></g><g clip-path="url(#d3c9de1185)"><g clip-path="url(#7743a52fcd)"><g transform="matrix(1, 0, 0, 1, 351, 330)"><g clip-path="url(#09cc5fb4bc)"><g clip-path="url(#e468a45a0f)"><g clip-path="url(#f69662a670)"><path fill="#ffffff" d="M 0.015625 0.960938 L 166.496094 0.960938 L 166.496094 204.613281 L 0.015625 204.613281 Z M 0.015625 0.960938 " fill-opacity="1" fill-rule="nonzero"/></g></g></g></g></g></g><g clip-path="url(#1520f8cf8e)"><g clip-path="url(#4d74d72898)"><g transform="matrix(1, 0, 0, 1, 195, 552)"><g clip-path="url(#85c11a46c6)"><g clip-path="url(#0550ebfd79)"><g clip-path="url(#9b2d8bd279)"><path fill="#ffffff" d="M 0.121094 0.359375 L 149.152344 0.359375 L 149.152344 185.378906 L 0.121094 185.378906 Z M 0.121094 0.359375 " fill-opacity="1" fill-rule="nonzero"/></g></g></g></g></g></g><g clip-path="url(#6a1c6ef4e5)"><path fill="#ffffff" d="M 441.101562 676.882812 L 461.894531 699.695312 L 423.4375 738.261719 L 402.511719 715.71875 Z M 423.847656 538.375 L 457.273438 551.003906 L 453.332031 564.039062 L 507.144531 564.039062 L 501.574219 604.234375 L 472.222656 604.371094 L 518.832031 729.164062 L 482.820312 741.519531 L 434.988281 613.875 L 381.585938 740.433594 L 345.03125 729.296875 L 397.753906 603.828125 L 359.300781 603.691406 L 362.289062 564.039062 L 413.109375 564.039062 Z M 423.847656 538.375 " fill-opacity="1" fill-rule="nonzero"/></g><g clip-path="url(#baddc14580)"><g clip-path="url(#df55c6d12e)"><g transform="matrix(1, 0, 0, 1, 538, 73)"><g clip-path="url(#9c9e47bd76)"><g clip-path="url(#29ee6ff46f)"><g clip-path="url(#d71819a9f1)"><path fill="#ffffff" d="M 0.996094 0.300781 L 71.691406 0.300781 L 71.691406 48.695312 L 0.996094 48.695312 Z M 0.996094 0.300781 " fill-opacity="1" fill-rule="nonzero"/></g></g></g></g></g></g><g clip-path="url(#4f19542c47)"><g clip-path="url(#531c5ce881)"><g transform="matrix(1, 0, 0, 1, 536, 132)"><g clip-path="url(#07109beb87)"><g clip-path="url(#aaaaa739a0)"><g clip-path="url(#40db51bfed)"><path fill="#ffffff" d="M 0.15625 0.769531 L 74.335938 0.769531 L 74.335938 50.875 L 0.15625 50.875 Z M 0.15625 0.769531 " fill-opacity="1" fill-rule="nonzero"/></g></g></g></g></g></g><g clip-path="url(#5fd4b3e256)"><g clip-path="url(#877e836d1b)"><g transform="matrix(1, 0, 0, 1, 536, 195)"><g clip-path="url(#f61f7459e3)"><g clip-path="url(#e9fe8a8626)"><g clip-path="url(#a34c889e79)"><path fill="#ffffff" d="M 0.46875 0.816406 L 73.863281 0.816406 L 73.863281 55.757812 L 0.46875 55.757812 Z M 0.46875 0.816406 " fill-opacity="1" fill-rule="nonzero"/></g></g></g></g></g></g><g clip-path="url(#40359b59cb)"><g clip-path="url(#3154a47f07)"><g transform="matrix(1, 0, 0, 1, 537, 261)"><g clip-path="url(#8d7416a371)"><g clip-path="url(#0698d38357)"><g clip-path="url(#d45d062aeb)"><path fill="#ffffff" d="M 0.628906 0.769531 L 73.546875 0.769531 L 73.546875 50.152344 L 0.628906 50.152344 Z M 0.628906 0.769531 " fill-opacity="1" fill-rule="nonzero"/></g></g></g></g></g></g><g clip-path="url(#b4750eca10)"><g clip-path="url(#acb9645ce8)"><g transform="matrix(1, 0, 0, 1, 536, 319)"><g clip-path="url(#2ee03a4a44)"><g clip-path="url(#e4ffe475d4)"><g clip-path="url(#94af7b53ae)"><path fill="#ffffff" d="M 0.421875 0.0507812 L 16.089844 0.0507812 L 16.089844 16.699219 L 0.421875 16.699219 Z M 0.421875 0.0507812 " fill-opacity="1" fill-rule="nonzero"/></g></g></g></g></g></g><g clip-path="url(#4d4b0e8536)"><g clip-path="url(#27d9fe8a66)"><g transform="matrix(1, 0, 0, 1, 537, 348)"><g clip-path="url(#a699965e1f)"><g clip-path="url(#ee0692f7b8)"><g clip-path="url(#b71d527ec0)"><path fill="#ffffff" d="M 0.273438 0.808594 L 74.203125 0.808594 L 74.203125 49.464844 L 0.273438 49.464844 Z M 0.273438 0.808594 " fill-opacity="1" fill-rule="nonzero"/></g></g></g></g></g></g><g clip-path="url(#7825b80a87)"><g clip-path="url(#9f5d1a8b04)"><g transform="matrix(1, 0, 0, 1, 535, 409)"><g clip-path="url(#a95796cfc1)"><g clip-path="url(#0b07bec8c3)"><g clip-path="url(#80135642fa)"><path fill="#ffffff" d="M 0.875 0.84375 L 72.46875 0.84375 L 72.46875 49.457031 L 0.875 49.457031 Z M 0.875 0.84375 " fill-opacity="1" fill-rule="nonzero"/></g></g></g></g></g></g><g clip-path="url(#fa83944d9c)"><path fill="#ffffff" d="M 613.136719 605.152344 C 613.136719 627.902344 594.691406 646.34375 571.941406 646.34375 C 549.191406 646.34375 530.75 627.902344 530.75 605.152344 C 530.75 582.402344 549.191406 563.960938 571.941406 563.960938 C 594.691406 563.960938 613.136719 582.402344 613.136719 605.152344 " fill-opacity="1" fill-rule="nonzero"/></g><g clip-path="url(#1ef1198f55)"><path stroke-linecap="round" transform="matrix(0.965909, 0, 0, 0.944443, 555.815472, 522.775722)" fill-opacity="1" fill="#ffffff" fill-rule="nonzero" stroke-linejoin="round" d="M 0.000967702 -2.029076 C -0.241679 -2.376503 -0.755282 -3.232662 -0.508591 -4.064006 C -0.148665 -5.284136 1.760159 -6.189928 4.073394 -5.590203 C 4.942879 -5.412353 5.998393 -5.110423 7.126702 -4.572738 C 9.387363 -3.501505 10.871554 -2.012532 11.708687 -1.011611 C 12.566039 0.899237 11.963466 2.876262 10.693613 3.571116 C 9.621922 4.158433 8.380378 3.670381 8.145819 3.571116 C 6.831481 3.016887 5.238099 2.206224 3.563835 1.027454 C 2.087732 -0.0148267 0.910894 -1.08606 0.000967702 -2.029076 Z M 0.000967702 -2.029076 " stroke="#2d2e82" stroke-width="0.51" stroke-opacity="1" stroke-miterlimit="10"/></g><g clip-path="url(#97fa78a09a)"><g clip-path="url(#3309e2c9a9)"><g transform="matrix(1, 0, 0, 1, 531, 468)"><g clip-path="url(#0ca88f7ed8)"><g clip-path="url(#76bc9212c0)"><g clip-path="url(#55d452e728)"><path fill="#ffffff" d="M 0.957031 0.542969 L 36.203125 0.542969 L 36.203125 64.695312 L 0.957031 64.695312 Z M 0.957031 0.542969 " fill-opacity="1" fill-rule="nonzero"/></g></g></g></g></g></g><g clip-path="url(#12f9d1b840)"><path stroke-linecap="round" transform="matrix(0.967742, 0, 0, 0.959805, 565.748063, 524.284266)" fill="none" stroke-linejoin="round" d="M 0.00200153 -49.410985 C -7.126383 -44.152754 -14.254768 -38.890452 -21.383153 -33.62815 L -7.639014 -37.702059 C -4.095003 -38.6951 -1.06766 -37.156701 -0.510629 -35.15841 C -0.0625818 -33.554893 -1.269483 -31.943237 -1.543962 -31.593231 L -10.690576 -20.901764 C -8.821696 -21.577358 -6.960889 -22.26109 -5.092009 -22.936684 C -3.009196 -23.742512 -0.886019 -23.221572 0.00200153 -21.919224 C 0.429866 -21.288399 0.680126 -20.315708 0.546923 -19.338946 C 0.446012 -18.655213 0.183642 -18.142414 0.00200153 -17.845315 C -9.084066 -8.500965 -13.875341 -4.129958 -16.083284 -2.656677 C -15.820914 -2.644467 -15.550472 -2.615978 -15.275992 -2.57121 C -14.214404 -2.229344 -12.745133 -1.627008 -11.19917 -0.536291 C -9.459456 0.69687 -8.317139 2.068406 -7.639014 3.028888 C -6.678337 4.530659 -6.924561 6.476042 -8.147607 7.611527 C -9.217269 8.604567 -10.856071 8.816199 -12.220394 8.120256 C -13.927815 6.805698 -15.332503 5.76382 -16.29318 5.067877 C -18.049039 3.785878 -19.671695 2.328876 -21.383153 0.993969 C -22.166226 0.383493 -23.078466 -0.324659 -23.421565 -1.553751 C -23.683935 -2.502023 -23.490185 -3.3282 -23.421565 -3.58867 C -23.134976 -4.667177 -22.464924 -5.34684 -21.411409 -6.417208 C -20.22469 -7.605601 -18.860367 -8.773645 -18.327555 -9.192838 C -16.963232 -10.259136 -15.033805 -11.809744 -12.728987 -13.771407 C -14.690706 -13.287096 -16.067138 -12.93709 -16.801774 -12.753947 C -18.35581 -12.363242 -19.183284 -12.147541 -20.365966 -12.245217 C -21.161148 -12.310335 -22.238883 -12.464988 -22.912971 -13.262677 C -23.720263 -14.227229 -23.675862 -15.838885 -22.912971 -17.336586 C -19.58693 -21.495961 -16.260888 -25.651266 -12.93081 -29.810642 L -26.985757 -23.445414 C -30.303726 -22.147135 -33.666095 -23.595998 -34.622736 -25.993133 C -35.599559 -28.435036 -33.698387 -30.962406 -33.605549 -31.084501 C -25.45594 -39.061385 -17.310367 -47.034199 -9.164795 -55.015153 C -9.148649 -55.198296 -8.979118 -56.708206 -7.639014 -57.558803 C -6.577425 -58.230326 -5.19292 -58.230326 -4.074821 -57.558803 C -3.428988 -57.273914 -2.74279 -56.936117 -2.03641 -56.541343 C -0.849691 -55.873889 0.167496 -55.169807 1.019189 -54.502354 C 1.140283 -54.319211 1.979866 -53.037212 1.527783 -51.449975 C 1.172574 -50.212744 0.256298 -49.577849 0.00200153 -49.410985 Z M 0.00200153 -49.410985 " stroke="#2d2e82" stroke-width="0.51" stroke-opacity="1" stroke-miterlimit="10"/></g><g clip-path="url(#1da188edda)"><path fill="#ffffff" d="M 533.722656 527.375 C 533.480469 527.214844 532.132812 526.292969 532.273438 525.417969 C 532.414062 524.511719 534.136719 523.714844 536.625 523.949219 C 537.625 523.976562 539.230469 524.140625 540.976562 524.925781 C 543.042969 525.859375 544.300781 527.222656 545.8125 528.84375 C 546.769531 529.867188 547.988281 531.324219 549.199219 533.246094 C 550.808594 535.695312 552.421875 538.140625 554.03125 540.589844 C 555.308594 542.210938 555.273438 544.492188 554.03125 545.972656 C 552.640625 547.628906 550.050781 547.90625 548.230469 546.460938 C 547.402344 545.726562 546.394531 544.753906 545.328125 543.527344 C 545.03125 543.183594 543.792969 541.738281 542.429688 539.609375 C 541.679688 538.449219 540.828125 536.976562 540.011719 535.203125 C 538.96875 533.773438 537.839844 532.300781 536.625 530.800781 C 535.648438 529.597656 534.679688 528.457031 533.722656 527.375 Z M 533.722656 527.375 " fill-opacity="1" fill-rule="nonzero"/></g><g clip-path="url(#8130676013)"><path stroke-linecap="round" transform="matrix(0.949755, 0, 0, 0.961253, 533.723353, 544.246577)" fill="none" stroke-linejoin="round" d="M -0.000733241 -17.551647 C -0.255733 -17.718259 -1.674685 -18.677294 -1.52662 -19.587564 C -1.378556 -20.530343 0.435235 -21.359339 3.055154 -21.115517 C 4.108057 -21.087071 5.798461 -20.916395 7.636928 -20.099591 C 9.812654 -19.128365 11.137009 -17.710132 12.728703 -16.023694 C 13.736364 -14.959003 15.01959 -13.443241 16.29459 -11.443897 C 17.989106 -8.895954 19.687735 -6.352074 21.382252 -3.804131 C 22.727171 -2.117693 22.690155 0.255511 21.382252 1.795656 C 19.918058 3.518667 17.191203 3.80719 15.27459 2.303619 C 14.402655 1.539642 13.341525 0.527779 12.218703 -0.748224 C 11.906122 -1.10583 10.602332 -2.609401 9.166928 -4.824121 C 8.377251 -6.031042 7.480638 -7.563059 6.621041 -9.407981 C 5.522896 -10.895297 4.334267 -12.427314 3.055154 -13.987777 C 2.026928 -15.239399 1.006928 -16.426001 -0.000733241 -17.551647 Z M -0.000733241 -17.551647 " stroke="#2d2e82" stroke-width="0.51" stroke-opacity="1" stroke-miterlimit="10"/></g><g clip-path="url(#ba31e1e11a)"><g clip-path="url(#1613bceb5e)"><g transform="matrix(1, 0, 0, 1, 569, 482)"><g clip-path="url(#ab4605897b)"><g clip-path="url(#204e6fc5f6)"><g clip-path="url(#c96292bde3)"><path fill="#ffffff" d="M 0.828125 0.664062 L 16.742188 0.664062 L 16.742188 14.023438 L 0.828125 14.023438 Z M 0.828125 0.664062 " fill-opacity="1" fill-rule="nonzero"/></g></g></g></g></g></g><g clip-path="url(#6a0a07410d)"><path stroke-linecap="round" transform="matrix(0.954861, 0, 0, 0.937236, 571.371767, 493.649227)" fill="none" stroke-linejoin="round" d="M -0.00070482 -9.549368 C 1.116113 -10.874742 2.711568 -11.483247 4.07384 -11.078966 C 4.806113 -10.858071 5.309295 -10.39544 5.59975 -10.057845 C 5.853386 -9.641061 6.111113 -9.215941 6.36475 -8.794989 C 7.22384 -9.228445 8.160659 -9.653564 9.167022 -10.057845 C 10.795204 -10.716364 12.337477 -11.212337 13.74884 -11.587443 C 14.526113 -11.833346 14.718386 -11.645793 14.763386 -11.587443 C 14.967931 -11.337373 14.661113 -10.78305 14.256113 -10.057845 C 13.887931 -9.403494 13.519749 -8.890849 13.237477 -8.532415 C 11.200204 -5.477387 9.167022 -2.422359 7.129749 0.632669 C 6.937477 0.853565 5.86975 2.058071 4.07384 2.1581 C 1.979295 2.283135 0.662022 0.811887 0.510659 0.632669 C -0.0538866 0.0741786 -1.092978 -1.117824 -1.526614 -2.930835 C -2.357068 -6.377641 -0.311614 -9.14092 -0.00070482 -9.549368 Z M -0.00070482 -9.549368 " stroke="#2d2e82" stroke-width="0.51" stroke-opacity="1" stroke-miterlimit="10"/></g><g clip-path="url(#28a698c64a)"><path fill="#ffffff" d="M 601.890625 483.203125 C 600.644531 483.152344 599.558594 482.792969 599.414062 482.21875 C 599.238281 481.535156 600.355469 480.390625 602.386719 479.761719 C 603.417969 479.585938 604.988281 479.441406 606.847656 479.761719 C 609.160156 480.164062 610.851562 481.101562 611.804688 481.726562 C 611.945312 481.792969 614.480469 482.992188 614.777344 485.660156 C 614.976562 487.457031 614.03125 488.777344 613.785156 489.097656 C 612.101562 490.273438 609.957031 491.523438 607.34375 492.539062 C 606.304688 492.941406 605.308594 493.261719 604.371094 493.519531 C 602.386719 493.847656 600.402344 494.175781 598.421875 494.503906 C 597.882812 494.660156 597.550781 494.660156 597.429688 494.503906 C 597.234375 494.25 597.5625 493.597656 598.421875 492.539062 C 599.414062 491.390625 600.402344 490.246094 601.394531 489.097656 C 601.898438 488.363281 602.402344 487.546875 602.882812 486.640625 C 603.058594 486.308594 603.222656 485.980469 603.378906 485.660156 C 603.394531 485.585938 603.65625 484.441406 602.882812 483.695312 C 602.523438 483.347656 602.101562 483.238281 601.890625 483.203125 Z M 601.890625 483.203125 " fill-opacity="1" fill-rule="nonzero"/></g><g clip-path="url(#e260249859)"><path stroke-linecap="round" transform="matrix(0.973526, 0, 0, 0.965073, 601.890741, 490.899595)" fill="none" stroke-linejoin="round" d="M -0.00011938 -7.97501 C -1.2801 -8.027629 -2.395569 -8.40001 -2.54403 -8.99501 C -2.724592 -9.703343 -1.577023 -10.889296 0.509465 -11.540962 C 1.568759 -11.723105 3.181776 -11.872867 5.091715 -11.540962 C 7.467102 -11.124058 9.204505 -10.152629 10.18355 -9.50501 C 10.327999 -9.4362 12.932097 -8.193581 13.237045 -5.429057 C 13.441682 -3.567152 12.470662 -2.199057 12.217876 -1.867152 C 10.488498 -0.648819 8.285648 0.646419 5.6013 1.6988 C 4.533981 2.115705 3.510799 2.44761 2.547804 2.714753 C 0.509465 3.054753 -1.528873 3.394753 -3.5632 3.734753 C -4.116922 3.896658 -4.457982 3.896658 -4.582369 3.734753 C -4.782993 3.471658 -4.445945 2.795705 -3.5632 1.6988 C -2.54403 0.5088 -1.528873 -0.677152 -0.509704 -1.867152 C 0.00790558 -2.628105 0.525515 -3.474057 1.01905 -4.413105 C 1.199612 -4.757152 1.368136 -5.097152 1.528635 -5.429057 C 1.544685 -5.505962 1.813521 -6.691915 1.01905 -7.46501 C 0.649902 -7.825248 0.216554 -7.938581 -0.00011938 -7.97501 Z M -0.00011938 -7.97501 " stroke="#2d2e82" stroke-width="0.51" stroke-opacity="1" stroke-miterlimit="10"/></g><g clip-path="url(#1b655bb5f9)"><g clip-path="url(#1e434c9aee)"><g transform="matrix(1, 0, 0, 1, 568, 469)"><g clip-path="url(#884233170f)"><g clip-path="url(#e7dfed7877)"><g clip-path="url(#1ac58e3185)"><path fill="#ffffff" d="M 0.867188 0.4375 L 55 0.4375 L 55 89.882812 L 0.867188 89.882812 Z M 0.867188 0.4375 " fill-opacity="1" fill-rule="nonzero"/></g></g></g></g></g></g><g clip-path="url(#72ebd81315)"><path stroke-linecap="round" transform="matrix(0.962553, 0, 0, 0.963943, 586.102534, 555.994096)" fill="none" stroke-linejoin="round" d="M -0.00100931 -87.152177 C -0.528578 -87.533099 -0.841061 -87.399371 -1.019622 -87.662775 C -1.267174 -88.039645 -0.9344 -88.777176 -0.508287 -89.190517 C -0.138989 -89.551178 0.295241 -89.660592 0.510326 -89.701115 C 4.418391 -90.118509 7.989624 -88.809595 9.673785 -86.135033 C 10.063374 -85.515021 10.546302 -84.514086 10.692398 -83.079548 L 10.692398 -57.622581 C 11.816524 -58.068342 13.577791 -58.603254 15.785463 -58.643778 C 17.449332 -58.672144 18.84536 -58.40874 19.855856 -58.133179 C 21.828151 -57.598267 23.08214 -55.815226 22.911695 -54.060551 C 22.78589 -52.755689 21.884966 -51.604817 20.606627 -51.021276 C 17.810514 -50.506625 15.014401 -49.991975 12.218288 -49.477324 C 11.759709 -49.14503 11.435052 -48.788422 11.199675 -48.46018 C 10.862843 -47.986053 10.927774 -47.455193 10.927774 -47.212051 C 10.931833 -46.170593 11.012997 -43.868849 11.199675 -40.821469 L 11.711011 -40.821469 C 14.604521 -41.384748 17.664418 -41.903451 20.874469 -42.349211 C 24.060171 -42.790919 27.120068 -43.123213 30.041986 -43.366355 C 31.032191 -43.196156 32.257774 -42.896281 33.605102 -42.349211 C 34.777928 -41.871032 35.7519 -41.323963 36.518904 -40.821469 C 38.46279 -38.997904 38.734691 -36.497594 37.675496 -35.221098 C 36.888201 -34.272845 35.540873 -34.208007 35.130993 -34.203954 C 27.152534 -33.693356 19.178134 -33.18681 11.199675 -32.676212 L 11.199675 -11.802472 C 10.599059 -9.075229 9.795531 -7.044993 9.166507 -5.691503 C 8.411679 -4.066504 8.06673 -3.754471 7.129281 -1.618874 C 6.784333 -0.84082 6.374453 0.156062 5.599333 1.43661 C 5.201627 2.093094 4.836388 2.615849 4.58072 2.964352 C 4.05721 1.987732 3.513408 0.796336 3.05483 -0.597678 C 2.417689 -2.542814 2.145789 -4.297489 2.036217 -5.691503 C 1.865771 -13.83676 1.695326 -21.982017 1.528939 -30.131326 L -7.127242 -27.582387 C -8.336591 -27.339245 -10.341351 -27.096103 -12.727584 -27.582387 C -14.488851 -27.943048 -15.864587 -28.583322 -16.802036 -29.110129 C -17.573098 -29.482947 -17.77195 -29.985441 -17.820649 -30.131326 C -18.13719 -31.07958 -17.38642 -32.461437 -15.783423 -33.18681 C -12.666711 -33.823032 -9.43231 -34.657819 -6.108629 -35.731697 C -5.593235 -35.897844 -5.085958 -36.068043 -4.582739 -36.238242 C -3.791386 -36.505699 -2.935102 -36.837993 -2.038235 -37.259439 C -0.642208 -37.907817 0.54685 -38.616982 1.528939 -39.293727 L 1.528939 -47.438984 L -5.090016 -47.949582 C -6.019348 -48.075205 -7.273338 -48.346714 -8.653132 -48.966726 C -9.720444 -49.448958 -10.568612 -50.008184 -11.201694 -50.494468 C -11.250392 -50.51473 -12.151317 -50.883495 -12.220307 -51.515665 C -12.285238 -52.155939 -11.485769 -53.006936 -10.183081 -53.039355 L 1.528939 -55.077695 L 1.017604 -85.117889 C 1.009487 -85.442078 0.936439 -86.074247 0.510326 -86.645631 C 0.429162 -86.750993 0.270891 -86.961716 -0.00100931 -87.152177 Z M -0.00100931 -87.152177 " stroke="#2d2e82" stroke-width="0.51" stroke-opacity="1" stroke-miterlimit="10"/></g><g clip-path="url(#bf37dc9fcc)"><path fill="#2d2e82" d="M 586.691406 605.148438 C 586.691406 613.410156 579.996094 620.105469 571.734375 620.105469 C 563.472656 620.105469 556.773438 613.410156 556.773438 605.148438 C 556.773438 596.886719 563.472656 590.1875 571.734375 590.1875 C 579.996094 590.1875 586.691406 596.886719 586.691406 605.148438 " fill-opacity="1" fill-rule="nonzero"/></g><g clip-path="url(#818daf850b)"><g clip-path="url(#81ed82f225)"><g transform="matrix(1, 0, 0, 1, 558, 593)"><g clip-path="url(#95a6b17403)"><g clip-path="url(#3d1e00d71a)"><g clip-path="url(#677651bcd6)"><path fill="#e20613" d="M 0.246094 0.167969 L 15.484375 0.167969 L 15.484375 15.40625 L 0.246094 15.40625 Z M 0.246094 0.167969 " fill-opacity="1" fill-rule="nonzero"/></g></g></g></g></g></g><g clip-path="url(#d112cb0088)"><g clip-path="url(#c2f9c3909f)"><g transform="matrix(1, 0, 0, 1, 560, 590)"><g clip-path="url(#30cd2bd64e)"><g clip-path="url(#b6e7638e33)"><g clip-path="url(#39fda3e14c)"><path fill="#e20613" d="M 0.125 0.191406 L 26.929688 0.191406 L 26.929688 21.433594 L 0.125 21.433594 Z M 0.125 0.191406 " fill-opacity="1" fill-rule="nonzero"/></g></g></g></g></g></g><g clip-path="url(#e0844af216)"><g clip-path="url(#9d9b519ce3)"><g transform="matrix(1, 0, 0, 1, 570, 601)"><g clip-path="url(#51b0a36dd9)"><g clip-path="url(#96b1999f0b)"><g clip-path="url(#d10725bed6)"><path fill="#2d2e82" d="M 0.742188 0.773438 L 15.976562 0.773438 L 15.976562 16.011719 L 0.742188 16.011719 Z M 0.742188 0.773438 " fill-opacity="1" fill-rule="nonzero"/></g></g></g></g></g></g><g clip-path="url(#168cd0f941)"><path fill="#1d1d1b" d="M 592.445312 590.765625 L 588.640625 584.886719 L 586.589844 586.351562 L 590.394531 592.226562 Z M 592.445312 590.765625 " fill-opacity="1" fill-rule="evenodd"/></g><g clip-path="url(#07c94dc43b)"><path fill="#1d1d1b" d="M 597.035156 597.585938 L 593.230469 591.707031 L 591.179688 593.167969 L 594.984375 599.046875 Z M 597.035156 597.585938 " fill-opacity="1" fill-rule="evenodd"/></g><g clip-path="url(#45eed0dc06)"><path fill="#1d1d1b" d="M 598.707031 586.550781 L 594.902344 580.671875 L 592.851562 582.132812 L 596.65625 588.011719 Z M 598.707031 586.550781 " fill-opacity="1" fill-rule="evenodd"/></g><g clip-path="url(#5f5b5265ff)"><path fill="#1d1d1b" d="M 603.296875 593.367188 L 599.492188 587.492188 L 597.441406 588.953125 L 601.246094 594.832031 Z M 603.296875 593.367188 " fill-opacity="1" fill-rule="evenodd"/></g><g clip-path="url(#615da8aadc)"><path fill="#1d1d1b" d="M 600.175781 594.863281 L 591.835938 582.765625 L 589.808594 584.125 L 598.144531 596.222656 Z M 600.175781 594.863281 " fill-opacity="1" fill-rule="evenodd"/></g><g clip-path="url(#1f507c61da)"><path fill="#1d1d1b" d="M 593.257812 619.003906 L 597.042969 613.109375 L 594.984375 611.65625 L 591.203125 617.550781 Z M 593.257812 619.003906 " fill-opacity="1" fill-rule="evenodd"/></g><g clip-path="url(#7356cc4d6f)"><path fill="#1d1d1b" d="M 588.636719 625.804688 L 592.421875 619.910156 L 590.367188 618.457031 L 586.582031 624.351562 Z M 588.636719 625.804688 " fill-opacity="1" fill-rule="evenodd"/></g><g clip-path="url(#d4c43ee9f6)"><path fill="#1d1d1b" d="M 596.460938 621.140625 L 600.246094 615.246094 L 598.1875 613.792969 L 594.40625 619.6875 Z M 596.460938 621.140625 " fill-opacity="1" fill-rule="evenodd"/></g><g clip-path="url(#7b5b47d82c)"><path fill="#1d1d1b" d="M 591.839844 627.9375 L 595.625 622.042969 L 593.570312 620.59375 L 589.785156 626.484375 Z M 591.839844 627.9375 " fill-opacity="1" fill-rule="evenodd"/></g><g clip-path="url(#fa12998e69)"><path fill="#1d1d1b" d="M 599.359375 623.273438 L 603.140625 617.378906 L 601.085938 615.929688 L 597.304688 621.820312 Z M 599.359375 623.273438 " fill-opacity="1" fill-rule="evenodd"/></g><g clip-path="url(#94c6e15551)"><path fill="#1d1d1b" d="M 594.738281 630.074219 L 598.523438 624.179688 L 596.46875 622.726562 L 592.683594 628.621094 Z M 594.738281 630.074219 " fill-opacity="1" fill-rule="evenodd"/></g><g clip-path="url(#6d080fd116)"><path fill="#1d1d1b" d="M 549.125 619.742188 L 545.320312 613.863281 L 543.269531 615.324219 L 547.074219 621.203125 Z M 549.125 619.742188 " fill-opacity="1" fill-rule="evenodd"/></g><g clip-path="url(#0e6a42ce47)"><path fill="#1d1d1b" d="M 553.71875 626.5625 L 549.910156 620.683594 L 547.859375 622.144531 L 551.667969 628.023438 Z M 553.71875 626.5625 " fill-opacity="1" fill-rule="evenodd"/></g><g clip-path="url(#af5d76850d)"><path fill="#1d1d1b" d="M 550.59375 628.054688 L 542.253906 615.957031 L 540.226562 617.316406 L 548.5625 629.414062 Z M 550.59375 628.054688 " fill-opacity="1" fill-rule="evenodd"/></g><g clip-path="url(#d943d18c35)"><path fill="#1d1d1b" d="M 556.683594 623.910156 L 548.347656 611.8125 L 546.316406 613.167969 L 554.652344 625.265625 Z M 556.683594 623.910156 " fill-opacity="1" fill-rule="evenodd"/></g><g clip-path="url(#f0757779ae)"><path fill="#1d1d1b" d="M 545.144531 596.804688 L 553.382812 584.175781 L 551.34375 582.78125 L 543.101562 595.410156 Z M 545.144531 596.804688 " fill-opacity="1" fill-rule="evenodd"/></g><g clip-path="url(#eb19aaa231)"><path fill="#1d1d1b" d="M 548.207031 598.929688 L 556.445312 586.300781 L 554.40625 584.90625 L 546.167969 597.535156 Z M 548.207031 598.929688 " fill-opacity="1" fill-rule="evenodd"/></g><g clip-path="url(#8a43e1de59)"><path fill="#1d1d1b" d="M 542.105469 594.808594 L 550.34375 582.179688 L 548.304688 580.785156 L 540.066406 593.414062 Z M 542.105469 594.808594 " fill-opacity="1" fill-rule="evenodd"/></g><g clip-path="url(#fa655304e1)"><path fill="#ffffff" d="M 611.5 695.878906 C 611.5 718.628906 593.058594 737.070312 570.308594 737.070312 C 547.554688 737.070312 529.113281 718.628906 529.113281 695.878906 C 529.113281 673.125 547.554688 654.683594 570.308594 654.683594 C 593.058594 654.683594 611.5 673.125 611.5 695.878906 " fill-opacity="1" fill-rule="nonzero"/></g><g clip-path="url(#ef1a251a35)"><path fill="#e20613" d="M 585.042969 696.757812 C 585.042969 705.011719 578.363281 711.703125 570.121094 711.703125 C 561.878906 711.703125 555.199219 705.011719 555.199219 696.757812 C 555.199219 688.503906 561.878906 681.8125 570.121094 681.8125 C 578.363281 681.8125 585.042969 688.503906 585.042969 696.757812 " fill-opacity="1" fill-rule="nonzero"/></g></svg>